<?xml version="1.0" encoding="UTF-8" standalone="no"?>
<!DOCTYPE svg PUBLIC "-//W3C//DTD SVG 1.1//EN"
 "http://www.w3.org/Graphics/SVG/1.1/DTD/svg11.dtd">
<!-- Generated by graphviz version 11.0.0 (0)
 -->
<!-- Title: snakemake_dag Pages: 1 -->
<svg width="1398pt" height="1632pt"
 viewBox="0.00 0.00 1398.00 1631.50" xmlns="http://www.w3.org/2000/svg" xmlns:xlink="http://www.w3.org/1999/xlink">
<g id="graph0" class="graph" transform="scale(1 1) rotate(0) translate(4 1627.5)">
<title>snakemake_dag</title>
<polygon fill="white" stroke="none" points="-4,4 -4,-1627.5 1394,-1627.5 1394,4 -4,4"/>
<!-- 0 -->
<g id="node1" class="node">
<title>0</title>
<path fill="none" stroke="#56d8c9" stroke-width="2" d="M533.75,-36C533.75,-36 492.25,-36 492.25,-36 486.25,-36 480.25,-30 480.25,-24 480.25,-24 480.25,-12 480.25,-12 480.25,-6 486.25,0 492.25,0 492.25,0 533.75,0 533.75,0 539.75,0 545.75,-6 545.75,-12 545.75,-12 545.75,-24 545.75,-24 545.75,-30 539.75,-36 533.75,-36"/>
<text text-anchor="middle" x="513" y="-15.62" font-family="sans" font-size="10.00">results_tgz</text>
</g>
<!-- 1 -->
<g id="node2" class="node">
<title>1</title>
<path fill="none" stroke="#d8bc56" stroke-width="2" d="M272.25,-397.5C272.25,-397.5 221.75,-397.5 221.75,-397.5 215.75,-397.5 209.75,-391.5 209.75,-385.5 209.75,-385.5 209.75,-373 209.75,-373 209.75,-367 215.75,-361 221.75,-361 221.75,-361 272.25,-361 272.25,-361 278.25,-361 284.25,-367 284.25,-373 284.25,-373 284.25,-385.5 284.25,-385.5 284.25,-391.5 278.25,-397.5 272.25,-397.5"/>
<text text-anchor="middle" x="247" y="-384" font-family="sans" font-size="10.00">sam_header</text>
<text text-anchor="middle" x="247" y="-369.75" font-family="sans" font-size="10.00">sample: case</text>
</g>
<!-- 1&#45;&gt;0 -->
<g id="edge1" class="edge">
<title>1&#45;&gt;0</title>
<path fill="none" stroke="grey" stroke-width="2" d="M275.47,-360.15C309.24,-336.2 361,-290.59 361,-236 361,-236 361,-236 361,-161.75 361,-116.09 378.25,-103.81 411,-72 427.05,-56.41 448.6,-44.32 467.75,-35.64"/>
<polygon fill="grey" stroke="grey" stroke-width="2" points="469.02,-38.91 476.83,-31.75 466.26,-32.47 469.02,-38.91"/>
</g>
<!-- 8 -->
<g id="node9" class="node">
<title>8</title>
<path fill="none" stroke="#c6d856" stroke-width="2" d="M751.62,-325C751.62,-325 640.38,-325 640.38,-325 634.38,-325 628.38,-319 628.38,-313 628.38,-313 628.38,-301 628.38,-301 628.38,-295 634.38,-289 640.38,-289 640.38,-289 751.62,-289 751.62,-289 757.62,-289 763.62,-295 763.62,-301 763.62,-301 763.62,-313 763.62,-313 763.62,-319 757.62,-325 751.62,-325"/>
<text text-anchor="middle" x="696" y="-304.62" font-family="sans" font-size="10.00">annotate_filter_insertions</text>
</g>
<!-- 1&#45;&gt;8 -->
<g id="edge21" class="edge">
<title>1&#45;&gt;8</title>
<path fill="none" stroke="grey" stroke-width="2" d="M285.2,-363.18C287.82,-362.38 290.43,-361.64 293,-361 402.67,-333.61 532.87,-319.74 614.98,-313.2"/>
<polygon fill="grey" stroke="grey" stroke-width="2" points="615.02,-316.71 624.72,-312.45 614.48,-309.73 615.02,-316.71"/>
</g>
<!-- 2 -->
<g id="node3" class="node">
<title>2</title>
<path fill="none" stroke="#d8bc56" stroke-width="2" d="M321.25,-108.5C321.25,-108.5 258.75,-108.5 258.75,-108.5 252.75,-108.5 246.75,-102.5 246.75,-96.5 246.75,-96.5 246.75,-84 246.75,-84 246.75,-78 252.75,-72 258.75,-72 258.75,-72 321.25,-72 321.25,-72 327.25,-72 333.25,-78 333.25,-84 333.25,-84 333.25,-96.5 333.25,-96.5 333.25,-102.5 327.25,-108.5 321.25,-108.5"/>
<text text-anchor="middle" x="290" y="-95" font-family="sans" font-size="10.00">sam_header</text>
<text text-anchor="middle" x="290" y="-80.75" font-family="sans" font-size="10.00">sample: control</text>
</g>
<!-- 2&#45;&gt;0 -->
<g id="edge2" class="edge">
<title>2&#45;&gt;0</title>
<path fill="none" stroke="grey" stroke-width="2" d="M334.06,-75.37C372.57,-63.24 428.29,-45.69 467.28,-33.4"/>
<polygon fill="grey" stroke="grey" stroke-width="2" points="468.19,-36.78 476.68,-30.44 466.09,-30.11 468.19,-36.78"/>
</g>
<!-- 3 -->
<g id="node4" class="node">
<title>3</title>
<path fill="none" stroke="#568ad8" stroke-width="2" d="M374.12,-1623.5C374.12,-1623.5 313.88,-1623.5 313.88,-1623.5 307.88,-1623.5 301.88,-1617.5 301.88,-1611.5 301.88,-1611.5 301.88,-1599.5 301.88,-1599.5 301.88,-1593.5 307.88,-1587.5 313.88,-1587.5 313.88,-1587.5 374.12,-1587.5 374.12,-1587.5 380.12,-1587.5 386.12,-1593.5 386.12,-1599.5 386.12,-1599.5 386.12,-1611.5 386.12,-1611.5 386.12,-1617.5 380.12,-1623.5 374.12,-1623.5"/>
<text text-anchor="middle" x="344" y="-1603.12" font-family="sans" font-size="10.00">split_case_bam</text>
</g>
<!-- 3&#45;&gt;0 -->
<g id="edge3" class="edge">
<title>3&#45;&gt;0</title>
<path fill="none" stroke="grey" stroke-width="2" d="M301.07,-1601.19C229.72,-1594.96 90.61,-1579.53 51,-1551.5 13.63,-1525.05 0,-1507.78 0,-1462 0,-1462 0,-1462 0,-161.75 0,-65.42 339.98,-31.33 466.4,-21.98"/>
<polygon fill="grey" stroke="grey" stroke-width="2" points="466.6,-25.47 476.32,-21.27 466.1,-18.49 466.6,-25.47"/>
</g>
<!-- 5 -->
<g id="node6" class="node">
<title>5</title>
<path fill="none" stroke="#56d8d0" stroke-width="2" d="M395.62,-397.5C395.62,-397.5 314.38,-397.5 314.38,-397.5 308.38,-397.5 302.38,-391.5 302.38,-385.5 302.38,-385.5 302.38,-373 302.38,-373 302.38,-367 308.38,-361 314.38,-361 314.38,-361 395.62,-361 395.62,-361 401.62,-361 407.62,-367 407.62,-373 407.62,-373 407.62,-385.5 407.62,-385.5 407.62,-391.5 401.62,-397.5 395.62,-397.5"/>
<text text-anchor="middle" x="355" y="-384" font-family="sans" font-size="10.00">pe_info_annotation</text>
<text text-anchor="middle" x="355" y="-369.75" font-family="sans" font-size="10.00">breakpoint: L</text>
</g>
<!-- 3&#45;&gt;5 -->
<g id="edge14" class="edge">
<title>3&#45;&gt;5</title>
<path fill="none" stroke="grey" stroke-width="2" d="M301.13,-1603.6C216.91,-1599.31 38,-1576.72 38,-1462 38,-1462 38,-1462 38,-522.75 38,-511.34 48.02,-512.54 57,-505.5 102.12,-470.14 111.95,-457.5 164,-433.5 164.38,-433.33 234.13,-413.89 289.22,-398.56"/>
<polygon fill="grey" stroke="grey" stroke-width="2" points="289.83,-402.02 298.52,-395.97 287.95,-395.28 289.83,-402.02"/>
</g>
<!-- 6 -->
<g id="node7" class="node">
<title>6</title>
<path fill="none" stroke="#56d8d0" stroke-width="2" d="M518.62,-397.5C518.62,-397.5 437.38,-397.5 437.38,-397.5 431.38,-397.5 425.38,-391.5 425.38,-385.5 425.38,-385.5 425.38,-373 425.38,-373 425.38,-367 431.38,-361 437.38,-361 437.38,-361 518.62,-361 518.62,-361 524.62,-361 530.62,-367 530.62,-373 530.62,-373 530.62,-385.5 530.62,-385.5 530.62,-391.5 524.62,-397.5 518.62,-397.5"/>
<text text-anchor="middle" x="478" y="-384" font-family="sans" font-size="10.00">pe_info_annotation</text>
<text text-anchor="middle" x="478" y="-369.75" font-family="sans" font-size="10.00">breakpoint: R</text>
</g>
<!-- 3&#45;&gt;6 -->
<g id="edge17" class="edge">
<title>3&#45;&gt;6</title>
<path fill="none" stroke="grey" stroke-width="2" d="M344,-1586.5C344,-1559.47 344,-1506.78 344,-1462 344,-1462 344,-1462 344,-595 344,-553.82 348.57,-541.81 368,-505.5 388.49,-467.2 422.76,-430.76 447.61,-407.16"/>
<polygon fill="grey" stroke="grey" stroke-width="2" points="449.8,-409.91 454.74,-400.53 445.04,-404.78 449.8,-409.91"/>
</g>
<!-- 3&#45;&gt;8 -->
<g id="edge22" class="edge">
<title>3&#45;&gt;8</title>
<path fill="none" stroke="grey" stroke-width="2" d="M351.87,-1586.91C363,-1560.39 382,-1508.34 382,-1462 382,-1462 382,-1462 382,-595 382,-554.34 379.1,-539.76 401,-505.5 415.43,-482.93 571.32,-375.25 594,-361 610.61,-350.56 629.51,-340.33 646.48,-331.67"/>
<polygon fill="grey" stroke="grey" stroke-width="2" points="647.81,-334.93 655.17,-327.31 644.67,-328.67 647.81,-334.93"/>
</g>
<!-- 24 -->
<g id="node25" class="node">
<title>24</title>
<path fill="none" stroke="#b6d856" stroke-width="2" d="M277.25,-686C277.25,-686 208.75,-686 208.75,-686 202.75,-686 196.75,-680 196.75,-674 196.75,-674 196.75,-662 196.75,-662 196.75,-656 202.75,-650 208.75,-650 208.75,-650 277.25,-650 277.25,-650 283.25,-650 289.25,-656 289.25,-662 289.25,-662 289.25,-674 289.25,-674 289.25,-680 283.25,-686 277.25,-686"/>
<text text-anchor="middle" x="243" y="-665.62" font-family="sans" font-size="10.00">drp_subset_bam</text>
</g>
<!-- 3&#45;&gt;24 -->
<g id="edge63" class="edge">
<title>3&#45;&gt;24</title>
<path fill="none" stroke="grey" stroke-width="2" d="M310.18,-1586.54C271.66,-1563.35 214,-1519.1 214,-1462 214,-1462 214,-1462 214,-811.5 214,-772.05 224.8,-727.67 233.22,-699.08"/>
<polygon fill="grey" stroke="grey" stroke-width="2" points="236.53,-700.24 236.11,-689.65 229.83,-698.19 236.53,-700.24"/>
</g>
<!-- 27 -->
<g id="node28" class="node">
<title>27</title>
<path fill="none" stroke="#d8a456" stroke-width="2" d="M1282.25,-903C1282.25,-903 1231.75,-903 1231.75,-903 1225.75,-903 1219.75,-897 1219.75,-891 1219.75,-891 1219.75,-878.5 1219.75,-878.5 1219.75,-872.5 1225.75,-866.5 1231.75,-866.5 1231.75,-866.5 1282.25,-866.5 1282.25,-866.5 1288.25,-866.5 1294.25,-872.5 1294.25,-878.5 1294.25,-878.5 1294.25,-891 1294.25,-891 1294.25,-897 1288.25,-903 1282.25,-903"/>
<text text-anchor="middle" x="1257" y="-889.5" font-family="sans" font-size="10.00">genome_file</text>
<text text-anchor="middle" x="1257" y="-875.25" font-family="sans" font-size="10.00">sample: case</text>
</g>
<!-- 3&#45;&gt;27 -->
<g id="edge67" class="edge">
<title>3&#45;&gt;27</title>
<path fill="none" stroke="grey" stroke-width="2" d="M386.88,-1601.23C549.77,-1588.22 1121,-1537.26 1121,-1462 1121,-1462 1121,-1462 1121,-1028 1121,-975.33 1170.31,-934.52 1209.55,-910.37"/>
<polygon fill="grey" stroke="grey" stroke-width="2" points="1211.12,-913.51 1217.95,-905.4 1207.56,-907.48 1211.12,-913.51"/>
</g>
<!-- 35 -->
<g id="node36" class="node">
<title>35</title>
<path fill="none" stroke="#56a2d8" stroke-width="2" d="M304.25,-758.5C304.25,-758.5 253.75,-758.5 253.75,-758.5 247.75,-758.5 241.75,-752.5 241.75,-746.5 241.75,-746.5 241.75,-734 241.75,-734 241.75,-728 247.75,-722 253.75,-722 253.75,-722 304.25,-722 304.25,-722 310.25,-722 316.25,-728 316.25,-734 316.25,-734 316.25,-746.5 316.25,-746.5 316.25,-752.5 310.25,-758.5 304.25,-758.5"/>
<text text-anchor="middle" x="279" y="-745" font-family="sans" font-size="10.00">drp_names</text>
<text text-anchor="middle" x="279" y="-730.75" font-family="sans" font-size="10.00">sample: case</text>
</g>
<!-- 3&#45;&gt;35 -->
<g id="edge76" class="edge">
<title>3&#45;&gt;35</title>
<path fill="none" stroke="grey" stroke-width="2" d="M332.97,-1586.81C317.71,-1560.6 292,-1509.4 292,-1462 292,-1462 292,-1462 292,-883.75 292,-845.11 287.2,-800.82 283.43,-772.01"/>
<polygon fill="grey" stroke="grey" stroke-width="2" points="286.92,-771.64 282.1,-762.2 279.98,-772.58 286.92,-771.64"/>
</g>
<!-- 37 -->
<g id="node38" class="node">
<title>37</title>
<path fill="none" stroke="#59d856" stroke-width="2" d="M591.5,-1551.5C591.5,-1551.5 518.5,-1551.5 518.5,-1551.5 512.5,-1551.5 506.5,-1545.5 506.5,-1539.5 506.5,-1539.5 506.5,-1527 506.5,-1527 506.5,-1521 512.5,-1515 518.5,-1515 518.5,-1515 591.5,-1515 591.5,-1515 597.5,-1515 603.5,-1521 603.5,-1527 603.5,-1527 603.5,-1539.5 603.5,-1539.5 603.5,-1545.5 597.5,-1551.5 591.5,-1551.5"/>
<text text-anchor="middle" x="555" y="-1538" font-family="sans" font-size="10.00">sort_clipped_bam</text>
<text text-anchor="middle" x="555" y="-1523.75" font-family="sans" font-size="10.00">sample: case</text>
</g>
<!-- 3&#45;&gt;37 -->
<g id="edge79" class="edge">
<title>3&#45;&gt;37</title>
<path fill="none" stroke="grey" stroke-width="2" d="M386.95,-1590.2C417.65,-1579.98 459.39,-1566.08 493.6,-1554.69"/>
<polygon fill="grey" stroke="grey" stroke-width="2" points="494.57,-1558.06 502.95,-1551.58 492.36,-1551.42 494.57,-1558.06"/>
</g>
<!-- 38 -->
<g id="node39" class="node">
<title>38</title>
<path fill="none" stroke="#d86656" stroke-width="2" d="M963.88,-830.5C963.88,-830.5 926.12,-830.5 926.12,-830.5 920.12,-830.5 914.12,-824.5 914.12,-818.5 914.12,-818.5 914.12,-806.5 914.12,-806.5 914.12,-800.5 920.12,-794.5 926.12,-794.5 926.12,-794.5 963.88,-794.5 963.88,-794.5 969.88,-794.5 975.88,-800.5 975.88,-806.5 975.88,-806.5 975.88,-818.5 975.88,-818.5 975.88,-824.5 969.88,-830.5 963.88,-830.5"/>
<text text-anchor="middle" x="945" y="-810.12" font-family="sans" font-size="10.00">isites_bed</text>
</g>
<!-- 3&#45;&gt;38 -->
<g id="edge82" class="edge">
<title>3&#45;&gt;38</title>
<path fill="none" stroke="grey" stroke-width="2" d="M374.79,-1586.63C410.93,-1563.09 466,-1518.02 466,-1462 466,-1462 466,-1462 466,-1100 466,-1049.47 784,-891.08 901.79,-834.14"/>
<polygon fill="grey" stroke="grey" stroke-width="2" points="902.99,-837.45 910.47,-829.96 899.95,-831.15 902.99,-837.45"/>
</g>
<!-- 4 -->
<g id="node5" class="node">
<title>4</title>
<path fill="none" stroke="#61d856" stroke-width="2" d="M1273.5,-614C1273.5,-614 1218.5,-614 1218.5,-614 1212.5,-614 1206.5,-608 1206.5,-602 1206.5,-602 1206.5,-590 1206.5,-590 1206.5,-584 1212.5,-578 1218.5,-578 1218.5,-578 1273.5,-578 1273.5,-578 1279.5,-578 1285.5,-584 1285.5,-590 1285.5,-590 1285.5,-602 1285.5,-602 1285.5,-608 1279.5,-614 1273.5,-614"/>
<text text-anchor="middle" x="1246" y="-593.62" font-family="sans" font-size="10.00">split_ctrl_bam</text>
</g>
<!-- 4&#45;&gt;0 -->
<g id="edge4" class="edge">
<title>4&#45;&gt;0</title>
<path fill="none" stroke="grey" stroke-width="2" d="M1262.52,-577.11C1300.34,-534.2 1390,-420.61 1390,-308 1390,-308 1390,-308 1390,-161.75 1390,-76.81 740.84,-32.36 559.53,-21.6"/>
<polygon fill="grey" stroke="grey" stroke-width="2" points="559.78,-18.11 549.6,-21.02 559.38,-25.1 559.78,-18.11"/>
</g>
<!-- 4&#45;&gt;8 -->
<g id="edge23" class="edge">
<title>4&#45;&gt;8</title>
<path fill="none" stroke="grey" stroke-width="2" d="M1248.07,-577.27C1252.13,-533.08 1255.81,-417.55 1192,-361 1161.62,-334.07 909.65,-318.16 776.99,-311.57"/>
<polygon fill="grey" stroke="grey" stroke-width="2" points="777.33,-308.08 767.18,-311.09 776.99,-315.07 777.33,-308.08"/>
</g>
<!-- 36 -->
<g id="node37" class="node">
<title>36</title>
<path fill="none" stroke="#59d856" stroke-width="2" d="M1099.5,-542C1099.5,-542 1026.5,-542 1026.5,-542 1020.5,-542 1014.5,-536 1014.5,-530 1014.5,-530 1014.5,-517.5 1014.5,-517.5 1014.5,-511.5 1020.5,-505.5 1026.5,-505.5 1026.5,-505.5 1099.5,-505.5 1099.5,-505.5 1105.5,-505.5 1111.5,-511.5 1111.5,-517.5 1111.5,-517.5 1111.5,-530 1111.5,-530 1111.5,-536 1105.5,-542 1099.5,-542"/>
<text text-anchor="middle" x="1063" y="-528.5" font-family="sans" font-size="10.00">sort_clipped_bam</text>
<text text-anchor="middle" x="1063" y="-514.25" font-family="sans" font-size="10.00">sample: control</text>
</g>
<!-- 4&#45;&gt;36 -->
<g id="edge78" class="edge">
<title>4&#45;&gt;36</title>
<path fill="none" stroke="grey" stroke-width="2" d="M1205.84,-579.58C1181.37,-570.19 1149.66,-558.02 1122.33,-547.52"/>
<polygon fill="grey" stroke="grey" stroke-width="2" points="1123.94,-544.39 1113.35,-544.08 1121.43,-550.93 1123.94,-544.39"/>
</g>
<!-- 5&#45;&gt;0 -->
<g id="edge5" class="edge">
<title>5&#45;&gt;0</title>
<path fill="none" stroke="grey" stroke-width="2" d="M364.33,-360.39C377.25,-333.95 399,-282.53 399,-236 399,-236 399,-236 399,-161.75 399,-112.24 441.39,-70.03 474.47,-44.63"/>
<polygon fill="grey" stroke="grey" stroke-width="2" points="476.42,-47.54 482.39,-38.78 472.26,-41.91 476.42,-47.54"/>
</g>
<!-- 5&#45;&gt;8 -->
<g id="edge30" class="edge">
<title>5&#45;&gt;8</title>
<path fill="none" stroke="grey" stroke-width="2" d="M408.49,-362.83C411.02,-362.2 413.54,-361.58 416,-361 482.46,-345.35 558.63,-331.17 614.73,-321.42"/>
<polygon fill="grey" stroke="grey" stroke-width="2" points="615.22,-324.89 624.48,-319.74 614.03,-317.99 615.22,-324.89"/>
</g>
<!-- 11 -->
<g id="node12" class="node">
<title>11</title>
<path fill="none" stroke="#56d88a" stroke-width="2" d="M472.88,-180.75C472.88,-180.75 441.12,-180.75 441.12,-180.75 435.12,-180.75 429.12,-174.75 429.12,-168.75 429.12,-168.75 429.12,-156.75 429.12,-156.75 429.12,-150.75 435.12,-144.75 441.12,-144.75 441.12,-144.75 472.88,-144.75 472.88,-144.75 478.88,-144.75 484.88,-150.75 484.88,-156.75 484.88,-156.75 484.88,-168.75 484.88,-168.75 484.88,-174.75 478.88,-180.75 472.88,-180.75"/>
<text text-anchor="middle" x="457" y="-160.38" font-family="sans" font-size="10.00">classifier</text>
</g>
<!-- 5&#45;&gt;11 -->
<g id="edge35" class="edge">
<title>5&#45;&gt;11</title>
<path fill="none" stroke="grey" stroke-width="2" d="M380.66,-360.04C392.07,-350.74 404.75,-338.54 413,-325 438.08,-283.84 449.14,-228.2 453.81,-194.2"/>
<polygon fill="grey" stroke="grey" stroke-width="2" points="457.26,-194.84 455.03,-184.48 450.31,-193.97 457.26,-194.84"/>
</g>
<!-- 6&#45;&gt;0 -->
<g id="edge6" class="edge">
<title>6&#45;&gt;0</title>
<path fill="none" stroke="grey" stroke-width="2" d="M485.42,-360.19C495.7,-333.51 513,-281.78 513,-236 513,-236 513,-236 513,-161.75 513,-122.99 513,-78.31 513,-49.41"/>
<polygon fill="grey" stroke="grey" stroke-width="2" points="516.5,-49.61 513,-39.61 509.5,-49.61 516.5,-49.61"/>
</g>
<!-- 6&#45;&gt;8 -->
<g id="edge31" class="edge">
<title>6&#45;&gt;8</title>
<path fill="none" stroke="grey" stroke-width="2" d="M531.61,-360.97C560.77,-351.58 597.13,-339.86 628.24,-329.84"/>
<polygon fill="grey" stroke="grey" stroke-width="2" points="628.99,-333.27 637.44,-326.87 626.85,-326.61 628.99,-333.27"/>
</g>
<!-- 6&#45;&gt;11 -->
<g id="edge36" class="edge">
<title>6&#45;&gt;11</title>
<path fill="none" stroke="grey" stroke-width="2" d="M476.25,-360.33C472.65,-323.65 464.43,-239.64 459.98,-194.23"/>
<polygon fill="grey" stroke="grey" stroke-width="2" points="463.49,-194.09 459.03,-184.48 456.52,-194.77 463.49,-194.09"/>
</g>
<!-- 7 -->
<g id="node8" class="node">
<title>7</title>
<path fill="none" stroke="#d89556" stroke-width="2" d="M802.12,-108.25C802.12,-108.25 735.88,-108.25 735.88,-108.25 729.88,-108.25 723.88,-102.25 723.88,-96.25 723.88,-96.25 723.88,-84.25 723.88,-84.25 723.88,-78.25 729.88,-72.25 735.88,-72.25 735.88,-72.25 802.12,-72.25 802.12,-72.25 808.12,-72.25 814.12,-78.25 814.12,-84.25 814.12,-84.25 814.12,-96.25 814.12,-96.25 814.12,-102.25 808.12,-108.25 802.12,-108.25"/>
<text text-anchor="middle" x="769" y="-87.88" font-family="sans" font-size="10.00">screenshots_tgz</text>
</g>
<!-- 7&#45;&gt;0 -->
<g id="edge7" class="edge">
<title>7&#45;&gt;0</title>
<path fill="none" stroke="grey" stroke-width="2" d="M722.97,-75.69C718.59,-74.43 714.21,-73.18 710,-72 658.42,-57.52 599.01,-41.65 559.04,-31.08"/>
<polygon fill="grey" stroke="grey" stroke-width="2" points="560.01,-27.72 549.45,-28.55 558.23,-34.49 560.01,-27.72"/>
</g>
<!-- 8&#45;&gt;0 -->
<g id="edge8" class="edge">
<title>8&#45;&gt;0</title>
<path fill="none" stroke="grey" stroke-width="2" d="M696.66,-288.3C697.27,-245.66 692.95,-136.05 637,-72 617.01,-49.12 585.43,-35.82 559.14,-28.26"/>
<polygon fill="grey" stroke="grey" stroke-width="2" points="560.22,-24.93 549.66,-25.77 558.44,-31.7 560.22,-24.93"/>
</g>
<!-- 9 -->
<g id="node10" class="node">
<title>9</title>
<path fill="none" stroke="#56c9d8" stroke-width="2" d="M655.62,-253C655.62,-253 610.38,-253 610.38,-253 604.38,-253 598.38,-247 598.38,-241 598.38,-241 598.38,-229 598.38,-229 598.38,-223 604.38,-217 610.38,-217 610.38,-217 655.62,-217 655.62,-217 661.62,-217 667.62,-223 667.62,-229 667.62,-229 667.62,-241 667.62,-241 667.62,-247 661.62,-253 655.62,-253"/>
<text text-anchor="middle" x="633" y="-232.62" font-family="sans" font-size="10.00">somatic_vcf</text>
</g>
<!-- 8&#45;&gt;9 -->
<g id="edge32" class="edge">
<title>8&#45;&gt;9</title>
<path fill="none" stroke="grey" stroke-width="2" d="M680.1,-288.34C673.29,-280.77 665.18,-271.75 657.62,-263.35"/>
<polygon fill="grey" stroke="grey" stroke-width="2" points="660.43,-261.24 651.14,-256.15 655.22,-265.93 660.43,-261.24"/>
</g>
<!-- 9&#45;&gt;0 -->
<g id="edge9" class="edge">
<title>9&#45;&gt;0</title>
<path fill="none" stroke="grey" stroke-width="2" d="M636.24,-216.09C641.01,-184.1 646.34,-116.34 616,-72 602.58,-52.39 579.61,-39.59 558.76,-31.5"/>
<polygon fill="grey" stroke="grey" stroke-width="2" points="559.94,-28.2 549.34,-28.16 557.6,-34.8 559.94,-28.2"/>
</g>
<!-- 10 -->
<g id="node11" class="node">
<title>10</title>
<path fill="none" stroke="#d8c356" stroke-width="2" d="M594.75,-108.25C594.75,-108.25 553.25,-108.25 553.25,-108.25 547.25,-108.25 541.25,-102.25 541.25,-96.25 541.25,-96.25 541.25,-84.25 541.25,-84.25 541.25,-78.25 547.25,-72.25 553.25,-72.25 553.25,-72.25 594.75,-72.25 594.75,-72.25 600.75,-72.25 606.75,-78.25 606.75,-84.25 606.75,-84.25 606.75,-96.25 606.75,-96.25 606.75,-102.25 600.75,-108.25 594.75,-108.25"/>
<text text-anchor="middle" x="574" y="-87.88" font-family="sans" font-size="10.00">line_hc_vcf</text>
</g>
<!-- 9&#45;&gt;10 -->
<g id="edge33" class="edge">
<title>9&#45;&gt;10</title>
<path fill="none" stroke="grey" stroke-width="2" d="M625.65,-216.21C615.74,-192.25 598,-149.31 586.11,-120.55"/>
<polygon fill="grey" stroke="grey" stroke-width="2" points="589.47,-119.52 582.42,-111.61 583,-122.19 589.47,-119.52"/>
</g>
<!-- 9&#45;&gt;11 -->
<g id="edge34" class="edge">
<title>9&#45;&gt;11</title>
<path fill="none" stroke="grey" stroke-width="2" d="M597.38,-219.78C568.52,-208.26 527.82,-192.02 497.68,-179.99"/>
<polygon fill="grey" stroke="grey" stroke-width="2" points="499.27,-176.85 488.69,-176.4 496.68,-183.36 499.27,-176.85"/>
</g>
<!-- 14 -->
<g id="node15" class="node">
<title>14</title>
<path fill="none" stroke="#d87d56" stroke-width="2" d="M891.12,-180.75C891.12,-180.75 836.88,-180.75 836.88,-180.75 830.88,-180.75 824.88,-174.75 824.88,-168.75 824.88,-168.75 824.88,-156.75 824.88,-156.75 824.88,-150.75 830.88,-144.75 836.88,-144.75 836.88,-144.75 891.12,-144.75 891.12,-144.75 897.12,-144.75 903.12,-150.75 903.12,-156.75 903.12,-156.75 903.12,-168.75 903.12,-168.75 903.12,-174.75 897.12,-180.75 891.12,-180.75"/>
<text text-anchor="middle" x="864" y="-160.38" font-family="sans" font-size="10.00">igv_batch_file</text>
</g>
<!-- 9&#45;&gt;14 -->
<g id="edge41" class="edge">
<title>9&#45;&gt;14</title>
<path fill="none" stroke="grey" stroke-width="2" d="M668.28,-224.49C702.75,-215.05 756.97,-199.79 811.9,-182.24"/>
<polygon fill="grey" stroke="grey" stroke-width="2" points="812.67,-185.67 821.11,-179.27 810.52,-179.01 812.67,-185.67"/>
</g>
<!-- 15 -->
<g id="node16" class="node">
<title>15</title>
<path fill="none" stroke="#88d856" stroke-width="2" d="M795.25,-181C795.25,-181 738.75,-181 738.75,-181 732.75,-181 726.75,-175 726.75,-169 726.75,-169 726.75,-156.5 726.75,-156.5 726.75,-150.5 732.75,-144.5 738.75,-144.5 738.75,-144.5 795.25,-144.5 795.25,-144.5 801.25,-144.5 807.25,-150.5 807.25,-156.5 807.25,-156.5 807.25,-169 807.25,-169 807.25,-175 801.25,-181 795.25,-181"/>
<text text-anchor="middle" x="767" y="-167.5" font-family="sans" font-size="10.00">igv_bed_file</text>
<text text-anchor="middle" x="767" y="-153.25" font-family="sans" font-size="10.00">infile: is.annot</text>
</g>
<!-- 9&#45;&gt;15 -->
<g id="edge43" class="edge">
<title>9&#45;&gt;15</title>
<path fill="none" stroke="grey" stroke-width="2" d="M667.16,-216.09C683.49,-207.53 703.28,-197.15 720.93,-187.9"/>
<polygon fill="grey" stroke="grey" stroke-width="2" points="722.52,-191.02 729.75,-183.28 719.27,-184.82 722.52,-191.02"/>
</g>
<!-- 10&#45;&gt;0 -->
<g id="edge10" class="edge">
<title>10&#45;&gt;0</title>
<path fill="none" stroke="grey" stroke-width="2" d="M558.61,-71.52C552.08,-64.01 544.33,-55.08 537.08,-46.73"/>
<polygon fill="grey" stroke="grey" stroke-width="2" points="539.78,-44.51 530.58,-39.25 534.5,-49.1 539.78,-44.51"/>
</g>
<!-- 11&#45;&gt;0 -->
<g id="edge11" class="edge">
<title>11&#45;&gt;0</title>
<path fill="none" stroke="grey" stroke-width="2" d="M463.98,-143.96C473.34,-120.11 490.07,-77.44 501.36,-48.68"/>
<polygon fill="grey" stroke="grey" stroke-width="2" points="504.61,-49.97 505,-39.38 498.09,-47.42 504.61,-49.97"/>
</g>
<!-- 12 -->
<g id="node13" class="node">
<title>12</title>
<path fill="none" stroke="#78d856" stroke-width="2" d="M775.75,-614C775.75,-614 650.25,-614 650.25,-614 644.25,-614 638.25,-608 638.25,-602 638.25,-602 638.25,-590 638.25,-590 638.25,-584 644.25,-578 650.25,-578 650.25,-578 775.75,-578 775.75,-578 781.75,-578 787.75,-584 787.75,-590 787.75,-590 787.75,-602 787.75,-602 787.75,-608 781.75,-614 775.75,-614"/>
<text text-anchor="middle" x="713" y="-593.62" font-family="sans" font-size="10.00">isites_to_named_breakpoints</text>
</g>
<!-- 12&#45;&gt;5 -->
<g id="edge12" class="edge">
<title>12&#45;&gt;5</title>
<path fill="none" stroke="grey" stroke-width="2" d="M683.09,-577.06C619.21,-538.74 469.31,-448.82 396.35,-405.05"/>
<polygon fill="grey" stroke="grey" stroke-width="2" points="398.3,-402.14 387.92,-400 394.7,-408.14 398.3,-402.14"/>
</g>
<!-- 12&#45;&gt;6 -->
<g id="edge15" class="edge">
<title>12&#45;&gt;6</title>
<path fill="none" stroke="grey" stroke-width="2" d="M698.22,-577.11C682.53,-558.5 656.63,-528.86 632,-505.5 593.25,-468.74 544.98,-430.59 512.91,-406.2"/>
<polygon fill="grey" stroke="grey" stroke-width="2" points="515.2,-403.54 505.11,-400.3 510.98,-409.12 515.2,-403.54"/>
</g>
<!-- 17 -->
<g id="node18" class="node">
<title>17</title>
<path fill="none" stroke="#d85656" stroke-width="2" d="M1011.62,-397.25C1011.62,-397.25 930.38,-397.25 930.38,-397.25 924.38,-397.25 918.38,-391.25 918.38,-385.25 918.38,-385.25 918.38,-373.25 918.38,-373.25 918.38,-367.25 924.38,-361.25 930.38,-361.25 930.38,-361.25 1011.62,-361.25 1011.62,-361.25 1017.62,-361.25 1023.62,-367.25 1023.62,-373.25 1023.62,-373.25 1023.62,-385.25 1023.62,-385.25 1023.62,-391.25 1017.62,-397.25 1011.62,-397.25"/>
<text text-anchor="middle" x="971" y="-376.88" font-family="sans" font-size="10.00">filter_control_reads</text>
</g>
<!-- 12&#45;&gt;17 -->
<g id="edge46" class="edge">
<title>12&#45;&gt;17</title>
<path fill="none" stroke="grey" stroke-width="2" d="M788.75,-585.23C831.62,-577.58 885.24,-564.35 929,-542 951.32,-530.6 951.8,-520.34 972,-505.5 996.15,-487.76 1014.54,-495.74 1029,-469.5 1036.72,-455.49 1035.44,-448.15 1029,-433.5 1024.49,-423.25 1016.93,-414.1 1008.73,-406.4"/>
<polygon fill="grey" stroke="grey" stroke-width="2" points="1011.13,-403.85 1001.25,-400.02 1006.59,-409.18 1011.13,-403.85"/>
</g>
<!-- 18 -->
<g id="node19" class="node">
<title>18</title>
<path fill="none" stroke="#5692d8" stroke-width="2" d="M540,-541.75C540,-541.75 422,-541.75 422,-541.75 416,-541.75 410,-535.75 410,-529.75 410,-529.75 410,-517.75 410,-517.75 410,-511.75 416,-505.75 422,-505.75 422,-505.75 540,-505.75 540,-505.75 546,-505.75 552,-511.75 552,-517.75 552,-517.75 552,-529.75 552,-529.75 552,-535.75 546,-541.75 540,-541.75"/>
<text text-anchor="middle" x="481" y="-521.38" font-family="sans" font-size="10.00">filter_clipped_reads_cluster</text>
</g>
<!-- 12&#45;&gt;18 -->
<g id="edge48" class="edge">
<title>12&#45;&gt;18</title>
<path fill="none" stroke="grey" stroke-width="2" d="M653.56,-577C622.72,-567.66 584.83,-556.19 552.42,-546.38"/>
<polygon fill="grey" stroke="grey" stroke-width="2" points="553.77,-543.13 543.19,-543.58 551.74,-549.83 553.77,-543.13"/>
</g>
<!-- 19 -->
<g id="node20" class="node">
<title>19</title>
<path fill="none" stroke="#5692d8" stroke-width="2" d="M755,-397.25C755,-397.25 637,-397.25 637,-397.25 631,-397.25 625,-391.25 625,-385.25 625,-385.25 625,-373.25 625,-373.25 625,-367.25 631,-361.25 637,-361.25 637,-361.25 755,-361.25 755,-361.25 761,-361.25 767,-367.25 767,-373.25 767,-373.25 767,-385.25 767,-385.25 767,-391.25 761,-397.25 755,-397.25"/>
<text text-anchor="middle" x="696" y="-376.88" font-family="sans" font-size="10.00">filter_clipped_reads_cluster</text>
</g>
<!-- 12&#45;&gt;19 -->
<g id="edge51" class="edge">
<title>12&#45;&gt;19</title>
<path fill="none" stroke="grey" stroke-width="2" d="M711.58,-577.06C708.67,-540.33 702.01,-456.23 698.42,-410.76"/>
<polygon fill="grey" stroke="grey" stroke-width="2" points="701.92,-410.7 697.64,-401.01 694.94,-411.25 701.92,-410.7"/>
</g>
<!-- 22 -->
<g id="node23" class="node">
<title>22</title>
<path fill="none" stroke="#d88556" stroke-width="2" d="M885.38,-397.25C885.38,-397.25 796.62,-397.25 796.62,-397.25 790.62,-397.25 784.62,-391.25 784.62,-385.25 784.62,-385.25 784.62,-373.25 784.62,-373.25 784.62,-367.25 790.62,-361.25 796.62,-361.25 796.62,-361.25 885.38,-361.25 885.38,-361.25 891.38,-361.25 897.38,-367.25 897.38,-373.25 897.38,-373.25 897.38,-385.25 897.38,-385.25 897.38,-391.25 891.38,-397.25 885.38,-397.25"/>
<text text-anchor="middle" x="841" y="-376.88" font-family="sans" font-size="10.00">low_complexity_filter</text>
</g>
<!-- 12&#45;&gt;22 -->
<g id="edge60" class="edge">
<title>12&#45;&gt;22</title>
<path fill="none" stroke="grey" stroke-width="2" d="M715.41,-577.14C720.68,-540.1 734.16,-456.42 751,-433.5 759.65,-421.73 771.75,-412.1 784.27,-404.43"/>
<polygon fill="grey" stroke="grey" stroke-width="2" points="785.7,-407.64 792.68,-399.67 782.26,-401.55 785.7,-407.64"/>
</g>
<!-- 39 -->
<g id="node40" class="node">
<title>39</title>
<path fill="none" stroke="#97d856" stroke-width="2" d="M908,-541.75C908,-541.75 772,-541.75 772,-541.75 766,-541.75 760,-535.75 760,-529.75 760,-529.75 760,-517.75 760,-517.75 760,-511.75 766,-505.75 772,-505.75 772,-505.75 908,-505.75 908,-505.75 914,-505.75 920,-511.75 920,-517.75 920,-517.75 920,-529.75 920,-529.75 920,-535.75 914,-541.75 908,-541.75"/>
<text text-anchor="middle" x="840" y="-521.38" font-family="sans" font-size="10.00">genomic_breakpoint_sequence</text>
</g>
<!-- 12&#45;&gt;39 -->
<g id="edge83" class="edge">
<title>12&#45;&gt;39</title>
<path fill="none" stroke="grey" stroke-width="2" d="M745.38,-577.09C760.9,-568.5 779.72,-558.09 796.48,-548.82"/>
<polygon fill="grey" stroke="grey" stroke-width="2" points="797.98,-551.99 805.03,-544.09 794.59,-545.87 797.98,-551.99"/>
</g>
<!-- 13 -->
<g id="node14" class="node">
<title>13</title>
<path fill="none" stroke="#d6d856" stroke-width="2" d="M318.5,-469.5C318.5,-469.5 185.5,-469.5 185.5,-469.5 179.5,-469.5 173.5,-463.5 173.5,-457.5 173.5,-457.5 173.5,-445.5 173.5,-445.5 173.5,-439.5 179.5,-433.5 185.5,-433.5 185.5,-433.5 318.5,-433.5 318.5,-433.5 324.5,-433.5 330.5,-439.5 330.5,-445.5 330.5,-445.5 330.5,-457.5 330.5,-457.5 330.5,-463.5 324.5,-469.5 318.5,-469.5"/>
<text text-anchor="middle" x="252" y="-449.12" font-family="sans" font-size="10.00">merge_discordant_repeat_info</text>
</g>
<!-- 13&#45;&gt;5 -->
<g id="edge13" class="edge">
<title>13&#45;&gt;5</title>
<path fill="none" stroke="grey" stroke-width="2" d="M278.26,-432.59C290.27,-424.4 304.72,-414.54 317.82,-405.61"/>
<polygon fill="grey" stroke="grey" stroke-width="2" points="319.64,-408.6 325.93,-400.08 315.7,-402.82 319.64,-408.6"/>
</g>
<!-- 13&#45;&gt;6 -->
<g id="edge16" class="edge">
<title>13&#45;&gt;6</title>
<path fill="none" stroke="grey" stroke-width="2" d="M309.91,-432.5C341.22,-422.77 380,-410.71 412.42,-400.63"/>
<polygon fill="grey" stroke="grey" stroke-width="2" points="413.11,-404.09 421.62,-397.78 411.03,-397.4 413.11,-404.09"/>
</g>
<!-- 14&#45;&gt;7 -->
<g id="edge18" class="edge">
<title>14&#45;&gt;7</title>
<path fill="none" stroke="grey" stroke-width="2" d="M840.03,-143.96C828.89,-135.69 815.44,-125.71 803.26,-116.67"/>
<polygon fill="grey" stroke="grey" stroke-width="2" points="805.51,-113.99 795.4,-110.84 801.34,-119.61 805.51,-113.99"/>
</g>
<!-- 15&#45;&gt;7 -->
<g id="edge19" class="edge">
<title>15&#45;&gt;7</title>
<path fill="none" stroke="grey" stroke-width="2" d="M767.52,-143.59C767.7,-136.96 767.92,-129.27 768.13,-121.86"/>
<polygon fill="grey" stroke="grey" stroke-width="2" points="771.62,-122.22 768.41,-112.13 764.63,-122.02 771.62,-122.22"/>
</g>
<!-- 16 -->
<g id="node17" class="node">
<title>16</title>
<path fill="none" stroke="#d86e56" stroke-width="2" d="M883.88,-830.5C883.88,-830.5 780.12,-830.5 780.12,-830.5 774.12,-830.5 768.12,-824.5 768.12,-818.5 768.12,-818.5 768.12,-806.5 768.12,-806.5 768.12,-800.5 774.12,-794.5 780.12,-794.5 780.12,-794.5 883.88,-794.5 883.88,-794.5 889.88,-794.5 895.88,-800.5 895.88,-806.5 895.88,-806.5 895.88,-818.5 895.88,-818.5 895.88,-824.5 889.88,-830.5 883.88,-830.5"/>
<text text-anchor="middle" x="832" y="-810.12" font-family="sans" font-size="10.00">insertions_name_sorted</text>
</g>
<!-- 16&#45;&gt;8 -->
<g id="edge20" class="edge">
<title>16&#45;&gt;8</title>
<path fill="none" stroke="grey" stroke-width="2" d="M835.67,-793.76C839.88,-775.27 847.69,-745.73 859,-722 909.04,-617.01 930.11,-593.63 1006,-505.5 1021.39,-487.63 1035.54,-491.11 1045,-469.5 1055.57,-445.37 1035.96,-363.93 1033,-361 997.92,-326.2 865.39,-314.25 777.36,-310.14"/>
<polygon fill="grey" stroke="grey" stroke-width="2" points="777.61,-306.65 767.46,-309.72 777.3,-313.65 777.61,-306.65"/>
</g>
<!-- 17&#45;&gt;8 -->
<g id="edge24" class="edge">
<title>17&#45;&gt;8</title>
<path fill="none" stroke="grey" stroke-width="2" d="M917.45,-363.98C913.58,-362.97 909.73,-361.97 906,-361 863.56,-350.01 816.21,-338.04 777.23,-328.26"/>
<polygon fill="grey" stroke="grey" stroke-width="2" points="778.11,-324.87 767.56,-325.83 776.41,-331.66 778.11,-324.87"/>
</g>
<!-- 18&#45;&gt;8 -->
<g id="edge25" class="edge">
<title>18&#45;&gt;8</title>
<path fill="none" stroke="grey" stroke-width="2" d="M525.11,-504.83C541.91,-496.21 560.1,-484.45 573,-469.5 606.88,-430.22 583.32,-401.28 616,-361 624.92,-350 636.73,-340.47 648.54,-332.63"/>
<polygon fill="grey" stroke="grey" stroke-width="2" points="650.09,-335.79 656.72,-327.53 646.39,-329.85 650.09,-335.79"/>
</g>
<!-- 19&#45;&gt;8 -->
<g id="edge26" class="edge">
<title>19&#45;&gt;8</title>
<path fill="none" stroke="grey" stroke-width="2" d="M696,-360.52C696,-353.92 696,-346.21 696,-338.78"/>
<polygon fill="grey" stroke="grey" stroke-width="2" points="699.5,-338.99 696,-328.99 692.5,-338.99 699.5,-338.99"/>
</g>
<!-- 20 -->
<g id="node21" class="node">
<title>20</title>
<path fill="none" stroke="#56d873" stroke-width="2" d="M1164.12,-686C1164.12,-686 1097.88,-686 1097.88,-686 1091.88,-686 1085.88,-680 1085.88,-674 1085.88,-674 1085.88,-662 1085.88,-662 1085.88,-656 1091.88,-650 1097.88,-650 1097.88,-650 1164.12,-650 1164.12,-650 1170.12,-650 1176.12,-656 1176.12,-662 1176.12,-662 1176.12,-674 1176.12,-674 1176.12,-680 1170.12,-686 1164.12,-686"/>
<text text-anchor="middle" x="1131" y="-665.62" font-family="sans" font-size="10.00">doc_distribution</text>
</g>
<!-- 20&#45;&gt;8 -->
<g id="edge27" class="edge">
<title>20&#45;&gt;8</title>
<path fill="none" stroke="grey" stroke-width="2" d="M1132.86,-649.06C1135.5,-622.1 1140,-569.54 1140,-524.75 1140,-524.75 1140,-524.75 1140,-450.5 1140,-406.93 1134.93,-387.04 1100,-361 1050.43,-324.06 880.24,-312.86 777.23,-309.46"/>
<polygon fill="grey" stroke="grey" stroke-width="2" points="777.53,-305.97 767.43,-309.16 777.31,-312.97 777.53,-305.97"/>
</g>
<!-- 21 -->
<g id="node22" class="node">
<title>21</title>
<path fill="none" stroke="#56d873" stroke-width="2" d="M1272.12,-686C1272.12,-686 1205.88,-686 1205.88,-686 1199.88,-686 1193.88,-680 1193.88,-674 1193.88,-674 1193.88,-662 1193.88,-662 1193.88,-656 1199.88,-650 1205.88,-650 1205.88,-650 1272.12,-650 1272.12,-650 1278.12,-650 1284.12,-656 1284.12,-662 1284.12,-662 1284.12,-674 1284.12,-674 1284.12,-680 1278.12,-686 1272.12,-686"/>
<text text-anchor="middle" x="1239" y="-665.62" font-family="sans" font-size="10.00">doc_distribution</text>
</g>
<!-- 21&#45;&gt;8 -->
<g id="edge28" class="edge">
<title>21&#45;&gt;8</title>
<path fill="none" stroke="grey" stroke-width="2" d="M1222.02,-649.2C1213.63,-639.48 1204.04,-626.84 1198,-614 1180.71,-577.21 1178,-565.4 1178,-524.75 1178,-524.75 1178,-524.75 1178,-450.5 1178,-405.15 1166.53,-386.45 1129,-361 1073.36,-323.27 886.65,-312.38 777.42,-309.25"/>
<polygon fill="grey" stroke="grey" stroke-width="2" points="777.61,-305.76 767.52,-308.99 777.43,-312.75 777.61,-305.76"/>
</g>
<!-- 22&#45;&gt;8 -->
<g id="edge29" class="edge">
<title>22&#45;&gt;8</title>
<path fill="none" stroke="grey" stroke-width="2" d="M804.04,-360.34C786.04,-351.62 764.16,-341.02 744.81,-331.65"/>
<polygon fill="grey" stroke="grey" stroke-width="2" points="746.4,-328.53 735.87,-327.32 743.35,-334.83 746.4,-328.53"/>
</g>
<!-- 23 -->
<g id="node24" class="node">
<title>23</title>
<path fill="none" stroke="#56a9d8" stroke-width="2" d="M982,-902.75C982,-902.75 864,-902.75 864,-902.75 858,-902.75 852,-896.75 852,-890.75 852,-890.75 852,-878.75 852,-878.75 852,-872.75 858,-866.75 864,-866.75 864,-866.75 982,-866.75 982,-866.75 988,-866.75 994,-872.75 994,-878.75 994,-878.75 994,-890.75 994,-890.75 994,-896.75 988,-902.75 982,-902.75"/>
<text text-anchor="middle" x="923" y="-882.38" font-family="sans" font-size="10.00">candidate_integration_sites</text>
</g>
<!-- 23&#45;&gt;12 -->
<g id="edge37" class="edge">
<title>23&#45;&gt;12</title>
<path fill="none" stroke="grey" stroke-width="2" d="M851.01,-876.87C818.5,-870.07 782.24,-856.7 759,-830.5 708.23,-773.27 706.84,-676.68 709.95,-627.6"/>
<polygon fill="grey" stroke="grey" stroke-width="2" points="713.43,-628.07 710.71,-617.83 706.45,-627.53 713.43,-628.07"/>
</g>
<!-- 23&#45;&gt;16 -->
<g id="edge45" class="edge">
<title>23&#45;&gt;16</title>
<path fill="none" stroke="grey" stroke-width="2" d="M900.04,-866.02C889.56,-857.93 876.94,-848.19 865.43,-839.31"/>
<polygon fill="grey" stroke="grey" stroke-width="2" points="867.72,-836.66 857.67,-833.32 863.45,-842.2 867.72,-836.66"/>
</g>
<!-- 23&#45;&gt;20 -->
<g id="edge56" class="edge">
<title>23&#45;&gt;20</title>
<path fill="none" stroke="grey" stroke-width="2" d="M989.71,-865.8C1041.65,-847.92 1110.25,-814.83 1143,-758.5 1153.45,-740.53 1149.85,-717.16 1143.96,-698.81"/>
<polygon fill="grey" stroke="grey" stroke-width="2" points="1147.31,-697.78 1140.58,-689.6 1140.74,-700.19 1147.31,-697.78"/>
</g>
<!-- 23&#45;&gt;21 -->
<g id="edge59" class="edge">
<title>23&#45;&gt;21</title>
<path fill="none" stroke="grey" stroke-width="2" d="M994.57,-873C1029.93,-865.25 1071.99,-852.2 1105,-830.5 1157.89,-795.74 1200.7,-733.8 1222.75,-697.57"/>
<polygon fill="grey" stroke="grey" stroke-width="2" points="1225.52,-699.76 1227.63,-689.37 1219.51,-696.18 1225.52,-699.76"/>
</g>
<!-- 23&#45;&gt;38 -->
<g id="edge80" class="edge">
<title>23&#45;&gt;38</title>
<path fill="none" stroke="grey" stroke-width="2" d="M928.55,-866.02C930.67,-859.25 933.15,-851.33 935.54,-843.72"/>
<polygon fill="grey" stroke="grey" stroke-width="2" points="938.82,-844.94 938.47,-834.35 932.14,-842.85 938.82,-844.94"/>
</g>
<!-- 24&#45;&gt;13 -->
<g id="edge38" class="edge">
<title>24&#45;&gt;13</title>
<path fill="none" stroke="grey" stroke-width="2" d="M262.93,-649.45C272.15,-639.99 282.13,-627.5 287,-614 303.15,-569.26 283.7,-514.72 267.98,-481.85"/>
<polygon fill="grey" stroke="grey" stroke-width="2" points="271.2,-480.45 263.59,-473.08 264.94,-483.59 271.2,-480.45"/>
</g>
<!-- 26 -->
<g id="node27" class="node">
<title>26</title>
<path fill="none" stroke="#56d8a2" stroke-width="2" d="M265.88,-614C265.88,-614 168.12,-614 168.12,-614 162.12,-614 156.12,-608 156.12,-602 156.12,-602 156.12,-590 156.12,-590 156.12,-584 162.12,-578 168.12,-578 168.12,-578 265.88,-578 265.88,-578 271.88,-578 277.88,-584 277.88,-590 277.88,-590 277.88,-602 277.88,-602 277.88,-608 271.88,-614 265.88,-614"/>
<text text-anchor="middle" x="217" y="-593.62" font-family="sans" font-size="10.00">discordant_reads_fastq</text>
</g>
<!-- 24&#45;&gt;26 -->
<g id="edge66" class="edge">
<title>24&#45;&gt;26</title>
<path fill="none" stroke="grey" stroke-width="2" d="M236.44,-649.34C233.93,-642.59 231,-634.69 228.18,-627.11"/>
<polygon fill="grey" stroke="grey" stroke-width="2" points="231.47,-625.9 224.7,-617.74 224.9,-628.33 231.47,-625.9"/>
</g>
<!-- 25 -->
<g id="node26" class="node">
<title>25</title>
<path fill="none" stroke="#56d8b9" stroke-width="2" d="M228.12,-541.75C228.12,-541.75 77.88,-541.75 77.88,-541.75 71.88,-541.75 65.88,-535.75 65.88,-529.75 65.88,-529.75 65.88,-517.75 65.88,-517.75 65.88,-511.75 71.88,-505.75 77.88,-505.75 77.88,-505.75 228.12,-505.75 228.12,-505.75 234.12,-505.75 240.12,-511.75 240.12,-517.75 240.12,-517.75 240.12,-529.75 240.12,-529.75 240.12,-535.75 234.12,-541.75 228.12,-541.75"/>
<text text-anchor="middle" x="153" y="-521.38" font-family="sans" font-size="10.00">discordant_reads_repeat_mapping</text>
</g>
<!-- 25&#45;&gt;13 -->
<g id="edge39" class="edge">
<title>25&#45;&gt;13</title>
<path fill="none" stroke="grey" stroke-width="2" d="M178.24,-504.84C189.87,-496.58 203.89,-486.64 216.56,-477.65"/>
<polygon fill="grey" stroke="grey" stroke-width="2" points="218.21,-480.77 224.34,-472.13 214.16,-475.06 218.21,-480.77"/>
</g>
<!-- 26&#45;&gt;13 -->
<g id="edge40" class="edge">
<title>26&#45;&gt;13</title>
<path fill="none" stroke="grey" stroke-width="2" d="M230.73,-577.45C237.58,-567.61 245.21,-554.78 249,-542 254.62,-523.06 255.4,-500.88 254.76,-483.34"/>
<polygon fill="grey" stroke="grey" stroke-width="2" points="258.26,-483.22 254.18,-473.44 251.27,-483.62 258.26,-483.22"/>
</g>
<!-- 26&#45;&gt;25 -->
<g id="edge65" class="edge">
<title>26&#45;&gt;25</title>
<path fill="none" stroke="grey" stroke-width="2" d="M200.85,-577.27C193.93,-569.68 185.69,-560.63 178.01,-552.2"/>
<polygon fill="grey" stroke="grey" stroke-width="2" points="180.73,-549.99 171.41,-544.95 175.55,-554.7 180.73,-549.99"/>
</g>
<!-- 27&#45;&gt;14 -->
<g id="edge42" class="edge">
<title>27&#45;&gt;14</title>
<path fill="none" stroke="grey" stroke-width="2" d="M1289.94,-865.72C1303.53,-856.77 1318.33,-844.79 1328,-830.5 1351.02,-796.48 1352,-782.33 1352,-741.25 1352,-741.25 1352,-741.25 1352,-306 1352,-265.03 1359.05,-243.73 1328,-217 1297.3,-190.57 1031.79,-172.95 916.77,-166.5"/>
<polygon fill="grey" stroke="grey" stroke-width="2" points="917.03,-163.01 906.86,-165.95 916.65,-170 917.03,-163.01"/>
</g>
<!-- 27&#45;&gt;15 -->
<g id="edge44" class="edge">
<title>27&#45;&gt;15</title>
<path fill="none" stroke="grey" stroke-width="2" d="M1269.37,-865.77C1286.13,-839.61 1314,-788.95 1314,-741.25 1314,-741.25 1314,-741.25 1314,-306 1314,-81.92 1044.53,-240.76 820.4,-181.99"/>
<polygon fill="grey" stroke="grey" stroke-width="2" points="821.57,-178.68 811,-179.34 819.67,-185.42 821.57,-178.68"/>
</g>
<!-- 27&#45;&gt;20 -->
<g id="edge55" class="edge">
<title>27&#45;&gt;20</title>
<path fill="none" stroke="grey" stroke-width="2" d="M1249.58,-865.51C1236.68,-834.72 1208.39,-770.99 1176,-722 1170.26,-713.32 1163.28,-704.47 1156.55,-696.56"/>
<polygon fill="grey" stroke="grey" stroke-width="2" points="1159.2,-694.26 1149.97,-689.06 1153.93,-698.88 1159.2,-694.26"/>
</g>
<!-- 27&#45;&gt;21 -->
<g id="edge58" class="edge">
<title>27&#45;&gt;21</title>
<path fill="none" stroke="grey" stroke-width="2" d="M1257.67,-865.7C1258.51,-835.7 1259.07,-773.78 1252,-722 1250.99,-714.61 1249.37,-706.75 1247.61,-699.41"/>
<polygon fill="grey" stroke="grey" stroke-width="2" points="1251.05,-698.71 1245.16,-689.9 1244.27,-700.46 1251.05,-698.71"/>
</g>
<!-- 27&#45;&gt;38 -->
<g id="edge81" class="edge">
<title>27&#45;&gt;38</title>
<path fill="none" stroke="grey" stroke-width="2" d="M1219.05,-875.21C1160.99,-862.13 1050.36,-837.22 988.91,-823.39"/>
<polygon fill="grey" stroke="grey" stroke-width="2" points="990.06,-820.06 979.53,-821.28 988.52,-826.89 990.06,-820.06"/>
</g>
<!-- 28 -->
<g id="node29" class="node">
<title>28</title>
<path fill="none" stroke="#afd856" stroke-width="2" d="M1007.5,-469.5C1007.5,-469.5 934.5,-469.5 934.5,-469.5 928.5,-469.5 922.5,-463.5 922.5,-457.5 922.5,-457.5 922.5,-445.5 922.5,-445.5 922.5,-439.5 928.5,-433.5 934.5,-433.5 934.5,-433.5 1007.5,-433.5 1007.5,-433.5 1013.5,-433.5 1019.5,-439.5 1019.5,-445.5 1019.5,-445.5 1019.5,-457.5 1019.5,-457.5 1019.5,-463.5 1013.5,-469.5 1007.5,-469.5"/>
<text text-anchor="middle" x="971" y="-449.12" font-family="sans" font-size="10.00">clipped_reads_tsv</text>
</g>
<!-- 28&#45;&gt;17 -->
<g id="edge47" class="edge">
<title>28&#45;&gt;17</title>
<path fill="none" stroke="grey" stroke-width="2" d="M971,-432.77C971,-426.17 971,-418.46 971,-411.03"/>
<polygon fill="grey" stroke="grey" stroke-width="2" points="974.5,-411.24 971,-401.24 967.5,-411.24 974.5,-411.24"/>
</g>
<!-- 28&#45;&gt;19 -->
<g id="edge52" class="edge">
<title>28&#45;&gt;19</title>
<path fill="none" stroke="grey" stroke-width="2" d="M921.68,-435.88C918.75,-435.06 915.84,-434.26 913,-433.5 869.3,-421.74 820.37,-409.64 780.05,-399.95"/>
<polygon fill="grey" stroke="grey" stroke-width="2" points="781.04,-396.59 770.5,-397.67 779.41,-403.4 781.04,-396.59"/>
</g>
<!-- 29 -->
<g id="node30" class="node">
<title>29</title>
<path fill="none" stroke="#afd856" stroke-width="2" d="M610.5,-1479C610.5,-1479 537.5,-1479 537.5,-1479 531.5,-1479 525.5,-1473 525.5,-1467 525.5,-1467 525.5,-1455 525.5,-1455 525.5,-1449 531.5,-1443 537.5,-1443 537.5,-1443 610.5,-1443 610.5,-1443 616.5,-1443 622.5,-1449 622.5,-1455 622.5,-1455 622.5,-1467 622.5,-1467 622.5,-1473 616.5,-1479 610.5,-1479"/>
<text text-anchor="middle" x="574" y="-1458.62" font-family="sans" font-size="10.00">clipped_reads_tsv</text>
</g>
<!-- 29&#45;&gt;18 -->
<g id="edge49" class="edge">
<title>29&#45;&gt;18</title>
<path fill="none" stroke="grey" stroke-width="2" d="M556.56,-1442.13C547.86,-1432.4 537.78,-1419.77 531,-1407 511.62,-1370.49 504,-1359.34 504,-1318 504,-1318 504,-1318 504,-667 504,-627.91 495.43,-583.54 488.75,-554.9"/>
<polygon fill="grey" stroke="grey" stroke-width="2" points="492.23,-554.4 486.48,-545.51 485.43,-556.05 492.23,-554.4"/>
</g>
<!-- 30 -->
<g id="node31" class="node">
<title>30</title>
<path fill="none" stroke="#5673d8" stroke-width="2" d="M670,-1407C670,-1407 552,-1407 552,-1407 546,-1407 540,-1401 540,-1395 540,-1395 540,-1383 540,-1383 540,-1377 546,-1371 552,-1371 552,-1371 670,-1371 670,-1371 676,-1371 682,-1377 682,-1383 682,-1383 682,-1395 682,-1395 682,-1401 676,-1407 670,-1407"/>
<text text-anchor="middle" x="611" y="-1386.62" font-family="sans" font-size="10.00">breakpoints_1st_pass_fastq</text>
</g>
<!-- 29&#45;&gt;30 -->
<g id="edge70" class="edge">
<title>29&#45;&gt;30</title>
<path fill="none" stroke="grey" stroke-width="2" d="M583.34,-1442.34C587.03,-1435.34 591.38,-1427.12 595.52,-1419.28"/>
<polygon fill="grey" stroke="grey" stroke-width="2" points="598.54,-1421.05 600.12,-1410.58 592.36,-1417.78 598.54,-1421.05"/>
</g>
<!-- 42 -->
<g id="node43" class="node">
<title>42</title>
<path fill="none" stroke="#d8ac56" stroke-width="2" d="M823.12,-1191C823.12,-1191 732.88,-1191 732.88,-1191 726.88,-1191 720.88,-1185 720.88,-1179 720.88,-1179 720.88,-1167 720.88,-1167 720.88,-1161 726.88,-1155 732.88,-1155 732.88,-1155 823.12,-1155 823.12,-1155 829.12,-1155 835.12,-1161 835.12,-1167 835.12,-1167 835.12,-1179 835.12,-1179 835.12,-1185 829.12,-1191 823.12,-1191"/>
<text text-anchor="middle" x="778" y="-1170.62" font-family="sans" font-size="10.00">subset_clipped_reads</text>
</g>
<!-- 29&#45;&gt;42 -->
<g id="edge87" class="edge">
<title>29&#45;&gt;42</title>
<path fill="none" stroke="grey" stroke-width="2" d="M623.36,-1444.52C672.28,-1426.45 745.19,-1391.61 783,-1335 810.11,-1294.41 813.67,-1274.64 803,-1227 801.21,-1219.02 798.08,-1210.82 794.63,-1203.33"/>
<polygon fill="grey" stroke="grey" stroke-width="2" points="797.87,-1201.99 790.25,-1194.63 791.61,-1205.13 797.87,-1201.99"/>
</g>
<!-- 30&#45;&gt;18 -->
<g id="edge50" class="edge">
<title>30&#45;&gt;18</title>
<path fill="none" stroke="grey" stroke-width="2" d="M592.55,-1370.35C583.39,-1360.69 572.85,-1348.04 566,-1335 546.95,-1298.73 542,-1286.97 542,-1246 542,-1246 542,-1246 542,-667 542,-626.03 535.28,-615.15 518,-578 514,-569.4 508.62,-560.69 503.21,-552.87"/>
<polygon fill="grey" stroke="grey" stroke-width="2" points="506.17,-551 497.45,-544.97 500.51,-555.12 506.17,-551"/>
</g>
<!-- 30&#45;&gt;19 -->
<g id="edge53" class="edge">
<title>30&#45;&gt;19</title>
<path fill="none" stroke="grey" stroke-width="2" d="M604.58,-1370.34C595.5,-1343.75 580,-1291.67 580,-1246 580,-1246 580,-1246 580,-595 580,-519.93 635.56,-445.91 669.78,-407.44"/>
<polygon fill="grey" stroke="grey" stroke-width="2" points="672.19,-409.99 676.34,-400.24 667.02,-405.27 672.19,-409.99"/>
</g>
<!-- 40 -->
<g id="node41" class="node">
<title>40</title>
<path fill="none" stroke="#70d856" stroke-width="2" d="M825,-1119C825,-1119 731,-1119 731,-1119 725,-1119 719,-1113 719,-1107 719,-1107 719,-1095 719,-1095 719,-1089 725,-1083 731,-1083 731,-1083 825,-1083 825,-1083 831,-1083 837,-1089 837,-1095 837,-1095 837,-1107 837,-1107 837,-1113 831,-1119 825,-1119"/>
<text text-anchor="middle" x="778" y="-1098.62" font-family="sans" font-size="10.00">breakpoints_2nd_pass</text>
</g>
<!-- 30&#45;&gt;40 -->
<g id="edge85" class="edge">
<title>30&#45;&gt;40</title>
<path fill="none" stroke="grey" stroke-width="2" d="M615.15,-1370.17C625.51,-1328.66 655.83,-1223.83 712,-1155 720.14,-1145.03 730.43,-1135.68 740.45,-1127.69"/>
<polygon fill="grey" stroke="grey" stroke-width="2" points="742.45,-1130.56 748.29,-1121.72 738.21,-1124.99 742.45,-1130.56"/>
</g>
<!-- 43 -->
<g id="node44" class="node">
<title>43</title>
<path fill="none" stroke="#56d892" stroke-width="2" d="M782.25,-1263C782.25,-1263 731.75,-1263 731.75,-1263 725.75,-1263 719.75,-1257 719.75,-1251 719.75,-1251 719.75,-1239 719.75,-1239 719.75,-1233 725.75,-1227 731.75,-1227 731.75,-1227 782.25,-1227 782.25,-1227 788.25,-1227 794.25,-1233 794.25,-1239 794.25,-1239 794.25,-1251 794.25,-1251 794.25,-1257 788.25,-1263 782.25,-1263"/>
<text text-anchor="middle" x="757" y="-1242.62" font-family="sans" font-size="10.00">loci_1st_pass</text>
</g>
<!-- 30&#45;&gt;43 -->
<g id="edge90" class="edge">
<title>30&#45;&gt;43</title>
<path fill="none" stroke="grey" stroke-width="2" d="M682.9,-1381.48C713.41,-1374.74 746.2,-1361.36 765,-1335 777.02,-1318.15 774.34,-1294.69 769.01,-1276.09"/>
<polygon fill="grey" stroke="grey" stroke-width="2" points="772.38,-1275.1 765.9,-1266.72 765.73,-1277.31 772.38,-1275.1"/>
</g>
<!-- 44 -->
<g id="node45" class="node">
<title>44</title>
<path fill="none" stroke="#9fd856" stroke-width="2" d="M743.5,-1335C743.5,-1335 658.5,-1335 658.5,-1335 652.5,-1335 646.5,-1329 646.5,-1323 646.5,-1323 646.5,-1311 646.5,-1311 646.5,-1305 652.5,-1299 658.5,-1299 658.5,-1299 743.5,-1299 743.5,-1299 749.5,-1299 755.5,-1305 755.5,-1311 755.5,-1311 755.5,-1323 755.5,-1323 755.5,-1329 749.5,-1335 743.5,-1335"/>
<text text-anchor="middle" x="701" y="-1314.62" font-family="sans" font-size="10.00">align_1st_pass_fastq</text>
</g>
<!-- 30&#45;&gt;44 -->
<g id="edge91" class="edge">
<title>30&#45;&gt;44</title>
<path fill="none" stroke="grey" stroke-width="2" d="M633.71,-1370.34C644.08,-1362.27 656.55,-1352.57 667.93,-1343.72"/>
<polygon fill="grey" stroke="grey" stroke-width="2" points="669.85,-1346.66 675.59,-1337.76 665.55,-1341.14 669.85,-1346.66"/>
</g>
<!-- 31 -->
<g id="node32" class="node">
<title>31</title>
<path fill="none" stroke="#567bd8" stroke-width="2" d="M980,-758.5C980,-758.5 880,-758.5 880,-758.5 874,-758.5 868,-752.5 868,-746.5 868,-746.5 868,-734 868,-734 868,-728 874,-722 880,-722 880,-722 980,-722 980,-722 986,-722 992,-728 992,-734 992,-734 992,-746.5 992,-746.5 992,-752.5 986,-758.5 980,-758.5"/>
<text text-anchor="middle" x="930" y="-745" font-family="sans" font-size="10.00">samtools_compute_doc</text>
<text text-anchor="middle" x="930" y="-730.75" font-family="sans" font-size="10.00">sample: case</text>
</g>
<!-- 31&#45;&gt;20 -->
<g id="edge54" class="edge">
<title>31&#45;&gt;20</title>
<path fill="none" stroke="grey" stroke-width="2" d="M982.02,-721.07C1009.91,-711.32 1044.35,-699.29 1073.08,-689.24"/>
<polygon fill="grey" stroke="grey" stroke-width="2" points="1073.87,-692.67 1082.16,-686.07 1071.56,-686.07 1073.87,-692.67"/>
</g>
<!-- 32 -->
<g id="node33" class="node">
<title>32</title>
<path fill="none" stroke="#567bd8" stroke-width="2" d="M1122,-758.5C1122,-758.5 1022,-758.5 1022,-758.5 1016,-758.5 1010,-752.5 1010,-746.5 1010,-746.5 1010,-734 1010,-734 1010,-728 1016,-722 1022,-722 1022,-722 1122,-722 1122,-722 1128,-722 1134,-728 1134,-734 1134,-734 1134,-746.5 1134,-746.5 1134,-752.5 1128,-758.5 1122,-758.5"/>
<text text-anchor="middle" x="1072" y="-745" font-family="sans" font-size="10.00">samtools_compute_doc</text>
<text text-anchor="middle" x="1072" y="-730.75" font-family="sans" font-size="10.00">sample: control</text>
</g>
<!-- 32&#45;&gt;21 -->
<g id="edge57" class="edge">
<title>32&#45;&gt;21</title>
<path fill="none" stroke="grey" stroke-width="2" d="M1115.01,-721.16C1136.22,-712.23 1162.04,-701.37 1184.62,-691.88"/>
<polygon fill="grey" stroke="grey" stroke-width="2" points="1185.78,-695.19 1193.64,-688.08 1183.06,-688.73 1185.78,-695.19"/>
</g>
<!-- 33 -->
<g id="node34" class="node">
<title>33</title>
<path fill="none" stroke="#56d0d8" stroke-width="2" d="M892.12,-469.5C892.12,-469.5 771.88,-469.5 771.88,-469.5 765.88,-469.5 759.88,-463.5 759.88,-457.5 759.88,-457.5 759.88,-445.5 759.88,-445.5 759.88,-439.5 765.88,-433.5 771.88,-433.5 771.88,-433.5 892.12,-433.5 892.12,-433.5 898.12,-433.5 904.12,-439.5 904.12,-445.5 904.12,-445.5 904.12,-457.5 904.12,-457.5 904.12,-463.5 898.12,-469.5 892.12,-469.5"/>
<text text-anchor="middle" x="832" y="-449.12" font-family="sans" font-size="10.00">mask_breakpoint_sequence</text>
</g>
<!-- 33&#45;&gt;22 -->
<g id="edge61" class="edge">
<title>33&#45;&gt;22</title>
<path fill="none" stroke="grey" stroke-width="2" d="M834.27,-432.77C835.12,-426.17 836.1,-418.46 837.06,-411.03"/>
<polygon fill="grey" stroke="grey" stroke-width="2" points="840.51,-411.58 838.31,-401.22 833.57,-410.69 840.51,-411.58"/>
</g>
<!-- 34 -->
<g id="node35" class="node">
<title>34</title>
<path fill="none" stroke="#d8d356" stroke-width="2" d="M930.62,-975C930.62,-975 831.38,-975 831.38,-975 825.38,-975 819.38,-969 819.38,-963 819.38,-963 819.38,-951 819.38,-951 819.38,-945 825.38,-939 831.38,-939 831.38,-939 930.62,-939 930.62,-939 936.62,-939 942.62,-945 942.62,-951 942.62,-951 942.62,-963 942.62,-963 942.62,-969 936.62,-975 930.62,-975"/>
<text text-anchor="middle" x="881" y="-954.62" font-family="sans" font-size="10.00">annotated_breakpoints</text>
</g>
<!-- 34&#45;&gt;23 -->
<g id="edge62" class="edge">
<title>34&#45;&gt;23</title>
<path fill="none" stroke="grey" stroke-width="2" d="M891.6,-938.27C895.84,-931.17 900.85,-922.8 905.6,-914.86"/>
<polygon fill="grey" stroke="grey" stroke-width="2" points="908.58,-916.69 910.71,-906.31 902.57,-913.1 908.58,-916.69"/>
</g>
<!-- 35&#45;&gt;24 -->
<g id="edge64" class="edge">
<title>35&#45;&gt;24</title>
<path fill="none" stroke="grey" stroke-width="2" d="M269.73,-721.16C266.13,-714.14 261.92,-705.92 257.92,-698.12"/>
<polygon fill="grey" stroke="grey" stroke-width="2" points="261.17,-696.78 253.5,-689.48 254.94,-699.98 261.17,-696.78"/>
</g>
<!-- 36&#45;&gt;28 -->
<g id="edge68" class="edge">
<title>36&#45;&gt;28</title>
<path fill="none" stroke="grey" stroke-width="2" d="M1039.31,-504.66C1028.71,-496.57 1016.03,-486.88 1004.48,-478.07"/>
<polygon fill="grey" stroke="grey" stroke-width="2" points="1006.77,-475.41 996.7,-472.12 1002.52,-480.97 1006.77,-475.41"/>
</g>
<!-- 37&#45;&gt;29 -->
<g id="edge69" class="edge">
<title>37&#45;&gt;29</title>
<path fill="none" stroke="grey" stroke-width="2" d="M559.89,-1514.16C561.7,-1507.47 563.81,-1499.69 565.83,-1492.22"/>
<polygon fill="grey" stroke="grey" stroke-width="2" points="569.17,-1493.28 568.4,-1482.71 562.41,-1491.45 569.17,-1493.28"/>
</g>
<!-- 38&#45;&gt;31 -->
<g id="edge71" class="edge">
<title>38&#45;&gt;31</title>
<path fill="none" stroke="grey" stroke-width="2" d="M941.21,-793.77C939.79,-787.09 938.12,-779.27 936.51,-771.75"/>
<polygon fill="grey" stroke="grey" stroke-width="2" points="939.98,-771.22 934.47,-762.18 933.13,-772.69 939.98,-771.22"/>
</g>
<!-- 38&#45;&gt;32 -->
<g id="edge72" class="edge">
<title>38&#45;&gt;32</title>
<path fill="none" stroke="grey" stroke-width="2" d="M976.72,-793.95C992.24,-785.37 1011.17,-774.9 1028.06,-765.55"/>
<polygon fill="grey" stroke="grey" stroke-width="2" points="1029.65,-768.67 1036.71,-760.77 1026.27,-762.55 1029.65,-768.67"/>
</g>
<!-- 38&#45;&gt;35 -->
<g id="edge77" class="edge">
<title>38&#45;&gt;35</title>
<path fill="none" stroke="grey" stroke-width="2" d="M913.44,-797.02C910.62,-796.05 907.78,-795.19 905,-794.5 796.24,-767.5 458.77,-749.54 329.81,-743.5"/>
<polygon fill="grey" stroke="grey" stroke-width="2" points="330.1,-740.01 319.95,-743.04 329.77,-747 330.1,-740.01"/>
</g>
<!-- 39&#45;&gt;33 -->
<g id="edge73" class="edge">
<title>39&#45;&gt;33</title>
<path fill="none" stroke="grey" stroke-width="2" d="M837.98,-505.02C837.23,-498.42 836.35,-490.71 835.5,-483.28"/>
<polygon fill="grey" stroke="grey" stroke-width="2" points="839,-483.01 834.39,-473.47 832.04,-483.81 839,-483.01"/>
</g>
<!-- 40&#45;&gt;34 -->
<g id="edge74" class="edge">
<title>40&#45;&gt;34</title>
<path fill="none" stroke="grey" stroke-width="2" d="M777.85,-1082.01C778.55,-1062.8 782.17,-1032.25 797,-1011 805.01,-999.52 816.38,-990 828.18,-982.34"/>
<polygon fill="grey" stroke="grey" stroke-width="2" points="829.67,-985.52 836.45,-977.38 826.08,-979.52 829.67,-985.52"/>
</g>
<!-- 41 -->
<g id="node42" class="node">
<title>41</title>
<path fill="none" stroke="#56d8a9" stroke-width="2" d="M944.12,-1047C944.12,-1047 817.88,-1047 817.88,-1047 811.88,-1047 805.88,-1041 805.88,-1035 805.88,-1035 805.88,-1023 805.88,-1023 805.88,-1017 811.88,-1011 817.88,-1011 817.88,-1011 944.12,-1011 944.12,-1011 950.12,-1011 956.12,-1017 956.12,-1023 956.12,-1023 956.12,-1035 956.12,-1035 956.12,-1041 950.12,-1047 944.12,-1047"/>
<text text-anchor="middle" x="881" y="-1026.62" font-family="sans" font-size="10.00">clipped_tail_te_ref_alignment</text>
</g>
<!-- 40&#45;&gt;41 -->
<g id="edge86" class="edge">
<title>40&#45;&gt;41</title>
<path fill="none" stroke="grey" stroke-width="2" d="M804.26,-1082.15C816.36,-1073.93 830.94,-1064.02 844.13,-1055.06"/>
<polygon fill="grey" stroke="grey" stroke-width="2" points="845.98,-1058.03 852.29,-1049.51 842.05,-1052.24 845.98,-1058.03"/>
</g>
<!-- 41&#45;&gt;34 -->
<g id="edge75" class="edge">
<title>41&#45;&gt;34</title>
<path fill="none" stroke="grey" stroke-width="2" d="M881,-1010.34C881,-1003.75 881,-996.08 881,-988.67"/>
<polygon fill="grey" stroke="grey" stroke-width="2" points="884.5,-988.93 881,-978.93 877.5,-988.93 884.5,-988.93"/>
</g>
<!-- 42&#45;&gt;40 -->
<g id="edge84" class="edge">
<title>42&#45;&gt;40</title>
<path fill="none" stroke="grey" stroke-width="2" d="M778,-1154.34C778,-1147.75 778,-1140.08 778,-1132.67"/>
<polygon fill="grey" stroke="grey" stroke-width="2" points="781.5,-1132.93 778,-1122.93 774.5,-1132.93 781.5,-1132.93"/>
</g>
<!-- 43&#45;&gt;42 -->
<g id="edge88" class="edge">
<title>43&#45;&gt;42</title>
<path fill="none" stroke="grey" stroke-width="2" d="M762.3,-1226.34C764.32,-1219.59 766.69,-1211.69 768.97,-1204.11"/>
<polygon fill="grey" stroke="grey" stroke-width="2" points="772.24,-1205.39 771.76,-1194.8 765.53,-1203.37 772.24,-1205.39"/>
</g>
<!-- 44&#45;&gt;43 -->
<g id="edge89" class="edge">
<title>44&#45;&gt;43</title>
<path fill="none" stroke="grey" stroke-width="2" d="M715.13,-1298.34C721.05,-1290.93 728.09,-1282.14 734.68,-1273.9"/>
<polygon fill="grey" stroke="grey" stroke-width="2" points="737.27,-1276.26 740.79,-1266.27 731.81,-1271.89 737.27,-1276.26"/>
</g>
</g>
</svg>
