<?xml version="1.0" encoding="UTF-8" standalone="no"?>
<!DOCTYPE svg PUBLIC "-//W3C//DTD SVG 1.1//EN"
 "http://www.w3.org/Graphics/SVG/1.1/DTD/svg11.dtd">
<!-- Generated by graphviz version 9.0.0 (0)
 -->
<!-- Title: TotalRecall Pages: 1 -->
<svg width="964pt" height="908pt"
 viewBox="0.00 0.00 963.93 908.00" xmlns="http://www.w3.org/2000/svg" xmlns:xlink="http://www.w3.org/1999/xlink">
<g id="graph0" class="graph" transform="scale(1 1) rotate(0) translate(4 904)">
<title>TotalRecall</title>
<polygon fill="white" stroke="none" points="-4,4 -4,-904 959.93,-904 959.93,4 -4,4"/>
<!-- CALL_pp_ctrl -->
<g id="node1" class="node">
<title>CALL_pp_ctrl</title>
<ellipse fill="none" stroke="black" cx="271.93" cy="-594" rx="52.89" ry="18"/>
<text text-anchor="middle" x="271.93" y="-588.95" font-family="Times,serif" font-size="14.00">call pp_ctrl</text>
</g>
<!-- CALL_TotalRecall_final_step -->
<g id="node2" class="node">
<title>CALL_TotalRecall_final_step</title>
<ellipse fill="none" stroke="black" cx="536.93" cy="-18" rx="109.7" ry="18"/>
<text text-anchor="middle" x="536.93" y="-12.95" font-family="Times,serif" font-size="14.00">call TotalRecall_final_step</text>
</g>
<!-- CALL_pp_ctrl&#45;&gt;CALL_TotalRecall_final_step -->
<g id="edge1" class="edge">
<title>CALL_pp_ctrl&#45;&gt;CALL_TotalRecall_final_step</title>
<path fill="none" stroke="black" d="M248.14,-577.64C236.05,-568.37 222.54,-555.37 215.93,-540 209.6,-525.3 214.39,-519.93 215.93,-504 219.05,-471.55 219.66,-462.94 229.93,-432 259.24,-343.67 300.93,-328.07 300.93,-235 300.93,-235 300.93,-235 300.93,-161 300.93,-88.41 383.91,-51.98 451.46,-34.35"/>
<polygon fill="black" stroke="black" points="452.25,-37.76 461.11,-31.94 450.56,-30.97 452.25,-37.76"/>
</g>
<!-- CALL_sort_bam_ctrl -->
<g id="node12" class="node">
<title>CALL_sort_bam_ctrl</title>
<ellipse fill="none" stroke="black" cx="302.93" cy="-522" rx="78.48" ry="18"/>
<text text-anchor="middle" x="302.93" y="-516.95" font-family="Times,serif" font-size="14.00">call sort_bam_ctrl</text>
</g>
<!-- CALL_pp_ctrl&#45;&gt;CALL_sort_bam_ctrl -->
<g id="edge9" class="edge">
<title>CALL_pp_ctrl&#45;&gt;CALL_sort_bam_ctrl</title>
<path fill="none" stroke="black" d="M279.59,-575.7C282.97,-568.07 287.02,-558.92 290.79,-550.4"/>
<polygon fill="black" stroke="black" points="293.89,-552.05 294.74,-541.49 287.49,-549.21 293.89,-552.05"/>
</g>
<!-- CALL_TotalRecall_integration_sites -->
<g id="node3" class="node">
<title>CALL_TotalRecall_integration_sites</title>
<ellipse fill="none" stroke="black" cx="600.93" cy="-378" rx="134.26" ry="18"/>
<text text-anchor="middle" x="600.93" y="-372.95" font-family="Times,serif" font-size="14.00">call TotalRecall_integration_sites</text>
</g>
<!-- CALL_TotalRecall_integration_sites&#45;&gt;CALL_TotalRecall_final_step -->
<g id="edge2" class="edge">
<title>CALL_TotalRecall_integration_sites&#45;&gt;CALL_TotalRecall_final_step</title>
<path fill="none" stroke="black" d="M572.87,-360.09C560.03,-350.96 545.75,-338.56 536.93,-324 515.97,-289.41 517.93,-275.45 517.93,-235 517.93,-235 517.93,-235 517.93,-161 517.93,-121.39 525.28,-76.11 530.84,-47.54"/>
<polygon fill="black" stroke="black" points="534.24,-48.37 532.78,-37.87 527.38,-46.98 534.24,-48.37"/>
</g>
<!-- CALL_doc_ctrl -->
<g id="node7" class="node">
<title>CALL_doc_ctrl</title>
<ellipse fill="none" stroke="black" cx="730.93" cy="-306" rx="56.98" ry="18"/>
<text text-anchor="middle" x="730.93" y="-300.95" font-family="Times,serif" font-size="14.00">call doc_ctrl</text>
</g>
<!-- CALL_TotalRecall_integration_sites&#45;&gt;CALL_doc_ctrl -->
<g id="edge31" class="edge">
<title>CALL_TotalRecall_integration_sites&#45;&gt;CALL_doc_ctrl</title>
<path fill="none" stroke="black" d="M632.4,-360.05C650.61,-350.25 673.67,-337.83 692.9,-327.48"/>
<polygon fill="black" stroke="black" points="694.36,-330.66 701.51,-322.84 691.05,-324.5 694.36,-330.66"/>
</g>
<!-- CALL_cc_case -->
<g id="node8" class="node">
<title>CALL_cc_case</title>
<ellipse fill="none" stroke="black" cx="600.93" cy="-306" rx="55.45" ry="18"/>
<text text-anchor="middle" x="600.93" y="-300.95" font-family="Times,serif" font-size="14.00">call cc_case</text>
</g>
<!-- CALL_TotalRecall_integration_sites&#45;&gt;CALL_cc_case -->
<g id="edge11" class="edge">
<title>CALL_TotalRecall_integration_sites&#45;&gt;CALL_cc_case</title>
<path fill="none" stroke="black" d="M600.93,-359.7C600.93,-352.41 600.93,-343.73 600.93,-335.54"/>
<polygon fill="black" stroke="black" points="604.43,-335.62 600.93,-325.62 597.43,-335.62 604.43,-335.62"/>
</g>
<!-- CALL_TotalRecall_drp_names -->
<g id="node14" class="node">
<title>CALL_TotalRecall_drp_names</title>
<ellipse fill="none" stroke="black" cx="158.93" cy="-306" rx="114.3" ry="18"/>
<text text-anchor="middle" x="158.93" y="-300.95" font-family="Times,serif" font-size="14.00">call TotalRecall_drp_names</text>
</g>
<!-- CALL_TotalRecall_integration_sites&#45;&gt;CALL_TotalRecall_drp_names -->
<g id="edge16" class="edge">
<title>CALL_TotalRecall_integration_sites&#45;&gt;CALL_TotalRecall_drp_names</title>
<path fill="none" stroke="black" d="M516.49,-363.63C439.82,-351.49 327.1,-333.63 248.8,-321.23"/>
<polygon fill="black" stroke="black" points="249.42,-317.79 238.99,-319.68 248.32,-324.7 249.42,-317.79"/>
</g>
<!-- CALL_doc_case -->
<g id="node16" class="node">
<title>CALL_doc_case</title>
<ellipse fill="none" stroke="black" cx="866.93" cy="-306" rx="60.56" ry="18"/>
<text text-anchor="middle" x="866.93" y="-300.95" font-family="Times,serif" font-size="14.00">call doc_case</text>
</g>
<!-- CALL_TotalRecall_integration_sites&#45;&gt;CALL_doc_case -->
<g id="edge24" class="edge">
<title>CALL_TotalRecall_integration_sites&#45;&gt;CALL_doc_case</title>
<path fill="none" stroke="black" d="M659.96,-361.46C705.25,-349.55 767.33,-333.21 811.65,-321.55"/>
<polygon fill="black" stroke="black" points="812.28,-325 821.06,-319.07 810.5,-318.23 812.28,-325"/>
</g>
<!-- CALL_cc_ctrl -->
<g id="node17" class="node">
<title>CALL_cc_ctrl</title>
<ellipse fill="none" stroke="black" cx="437.93" cy="-306" rx="51.86" ry="18"/>
<text text-anchor="middle" x="437.93" y="-300.95" font-family="Times,serif" font-size="14.00">call cc_ctrl</text>
</g>
<!-- CALL_TotalRecall_integration_sites&#45;&gt;CALL_cc_ctrl -->
<g id="edge37" class="edge">
<title>CALL_TotalRecall_integration_sites&#45;&gt;CALL_cc_ctrl</title>
<path fill="none" stroke="black" d="M562.3,-360.41C537.58,-349.8 505.52,-336.03 480.14,-325.13"/>
<polygon fill="black" stroke="black" points="481.67,-321.98 471.1,-321.25 478.91,-328.41 481.67,-321.98"/>
</g>
<!-- CALL_TotalRecall_drp_aln -->
<g id="node4" class="node">
<title>CALL_TotalRecall_drp_aln</title>
<ellipse fill="none" stroke="black" cx="168.93" cy="-162" rx="101.51" ry="18"/>
<text text-anchor="middle" x="168.93" y="-156.95" font-family="Times,serif" font-size="14.00">call TotalRecall_drp_aln</text>
</g>
<!-- CALL_TotalRecall_drp_case -->
<g id="node5" class="node">
<title>CALL_TotalRecall_drp_case</title>
<ellipse fill="none" stroke="black" cx="166.93" cy="-90" rx="106.11" ry="18"/>
<text text-anchor="middle" x="166.93" y="-84.95" font-family="Times,serif" font-size="14.00">call TotalRecall_drp_case</text>
</g>
<!-- CALL_TotalRecall_drp_aln&#45;&gt;CALL_TotalRecall_drp_case -->
<g id="edge3" class="edge">
<title>CALL_TotalRecall_drp_aln&#45;&gt;CALL_TotalRecall_drp_case</title>
<path fill="none" stroke="black" d="M168.43,-143.7C168.22,-136.41 167.98,-127.73 167.74,-119.54"/>
<polygon fill="black" stroke="black" points="171.24,-119.51 167.46,-109.62 164.24,-119.71 171.24,-119.51"/>
</g>
<!-- CALL_TotalRecall_drp_case&#45;&gt;CALL_TotalRecall_final_step -->
<g id="edge36" class="edge">
<title>CALL_TotalRecall_drp_case&#45;&gt;CALL_TotalRecall_final_step</title>
<path fill="none" stroke="black" d="M235.65,-76C297.98,-64.21 389.92,-46.81 455.83,-34.34"/>
<polygon fill="black" stroke="black" points="456.33,-37.81 465.51,-32.51 455.03,-30.93 456.33,-37.81"/>
</g>
<!-- CALL_pp_case -->
<g id="node6" class="node">
<title>CALL_pp_case</title>
<ellipse fill="none" stroke="black" cx="701.93" cy="-882" rx="56.47" ry="18"/>
<text text-anchor="middle" x="701.93" y="-876.95" font-family="Times,serif" font-size="14.00">call pp_case</text>
</g>
<!-- CALL_pp_case&#45;&gt;CALL_TotalRecall_final_step -->
<g id="edge35" class="edge">
<title>CALL_pp_case&#45;&gt;CALL_TotalRecall_final_step</title>
<path fill="none" stroke="black" d="M754.55,-875.12C828.95,-863.56 955.93,-830.44 955.93,-739 955.93,-739 955.93,-739 955.93,-161 955.93,-92.99 755.41,-51.12 631.8,-31.77"/>
<polygon fill="black" stroke="black" points="632.37,-28.32 621.95,-30.25 631.31,-35.24 632.37,-28.32"/>
</g>
<!-- CALL_pp_case&#45;&gt;CALL_TotalRecall_integration_sites -->
<g id="edge5" class="edge">
<title>CALL_pp_case&#45;&gt;CALL_TotalRecall_integration_sites</title>
<path fill="none" stroke="black" d="M645.63,-879.3C557.5,-873.3 396.93,-847.49 396.93,-739 396.93,-739 396.93,-739 396.93,-665 396.93,-555.22 404.12,-512.35 478.93,-432 492.6,-417.31 511.06,-406.48 529.47,-398.59"/>
<polygon fill="black" stroke="black" points="530.58,-401.92 538.56,-394.95 527.97,-395.42 530.58,-401.92"/>
</g>
<!-- CALL_pp_case&#45;&gt;CALL_doc_ctrl -->
<g id="edge4" class="edge">
<title>CALL_pp_case&#45;&gt;CALL_doc_ctrl</title>
<path fill="none" stroke="black" d="M741.2,-868.72C792.8,-849.86 876.93,-808.45 876.93,-739 876.93,-739 876.93,-739 876.93,-449 876.93,-390.9 816.77,-348.88 773.68,-326.23"/>
<polygon fill="black" stroke="black" points="775.54,-323.25 765.04,-321.85 772.37,-329.49 775.54,-323.25"/>
</g>
<!-- CALL_TotalRecall_drp_fq -->
<g id="node11" class="node">
<title>CALL_TotalRecall_drp_fq</title>
<ellipse fill="none" stroke="black" cx="97.93" cy="-234" rx="97.93" ry="18"/>
<text text-anchor="middle" x="97.93" y="-228.95" font-family="Times,serif" font-size="14.00">call TotalRecall_drp_fq</text>
</g>
<!-- CALL_pp_case&#45;&gt;CALL_TotalRecall_drp_fq -->
<g id="edge25" class="edge">
<title>CALL_pp_case&#45;&gt;CALL_TotalRecall_drp_fq</title>
<path fill="none" stroke="black" d="M645.29,-881.25C481.17,-880.48 16.93,-866.98 16.93,-739 16.93,-739 16.93,-739 16.93,-377 16.93,-336.55 15.24,-322.76 35.93,-288 42.58,-276.82 52.44,-266.84 62.36,-258.64"/>
<polygon fill="black" stroke="black" points="64.44,-261.45 70.19,-252.55 60.14,-255.92 64.44,-261.45"/>
</g>
<!-- CALL_pp_case&#45;&gt;CALL_TotalRecall_drp_names -->
<g id="edge12" class="edge">
<title>CALL_pp_case&#45;&gt;CALL_TotalRecall_drp_names</title>
<path fill="none" stroke="black" d="M646.37,-878.26C507.97,-869.93 158.93,-839 158.93,-739 158.93,-739 158.93,-739 158.93,-449 158.93,-409.74 158.93,-364.38 158.93,-335.69"/>
<polygon fill="black" stroke="black" points="162.43,-336 158.93,-326 155.43,-336 162.43,-336"/>
</g>
<!-- CALL_pp_case&#45;&gt;CALL_doc_case -->
<g id="edge28" class="edge">
<title>CALL_pp_case&#45;&gt;CALL_doc_case</title>
<path fill="none" stroke="black" d="M748.93,-871.58C811.66,-855.96 914.93,-818.22 914.93,-739 914.93,-739 914.93,-739 914.93,-449 914.93,-407.19 896.02,-361.92 881.94,-334.01"/>
<polygon fill="black" stroke="black" points="885.07,-332.45 877.34,-325.21 878.86,-335.69 885.07,-332.45"/>
</g>
<!-- CALL_sort_bam_case -->
<g id="node18" class="node">
<title>CALL_sort_bam_case</title>
<ellipse fill="none" stroke="black" cx="701.93" cy="-810" rx="82.06" ry="18"/>
<text text-anchor="middle" x="701.93" y="-804.95" font-family="Times,serif" font-size="14.00">call sort_bam_case</text>
</g>
<!-- CALL_pp_case&#45;&gt;CALL_sort_bam_case -->
<g id="edge26" class="edge">
<title>CALL_pp_case&#45;&gt;CALL_sort_bam_case</title>
<path fill="none" stroke="black" d="M701.93,-863.7C701.93,-856.41 701.93,-847.73 701.93,-839.54"/>
<polygon fill="black" stroke="black" points="705.43,-839.62 701.93,-829.62 698.43,-839.62 705.43,-839.62"/>
</g>
<!-- CALL_doc_ctrl&#45;&gt;CALL_TotalRecall_final_step -->
<g id="edge39" class="edge">
<title>CALL_doc_ctrl&#45;&gt;CALL_TotalRecall_final_step</title>
<path fill="none" stroke="black" d="M719.37,-287.97C686.83,-239.99 594.24,-103.5 554.93,-45.54"/>
<polygon fill="black" stroke="black" points="558.03,-43.87 549.51,-37.56 552.23,-47.8 558.03,-43.87"/>
</g>
<!-- CALL_cc_case&#45;&gt;CALL_TotalRecall_final_step -->
<g id="edge6" class="edge">
<title>CALL_cc_case&#45;&gt;CALL_TotalRecall_final_step</title>
<path fill="none" stroke="black" d="M597.11,-287.97C586.49,-240.49 556.46,-106.31 543.27,-47.36"/>
<polygon fill="black" stroke="black" points="546.73,-46.78 541.13,-37.78 539.9,-48.31 546.73,-46.78"/>
</g>
<!-- CALL_TotalRecall_case_1p -->
<g id="node9" class="node">
<title>CALL_TotalRecall_case_1p</title>
<ellipse fill="none" stroke="black" cx="636.93" cy="-666" rx="103.04" ry="18"/>
<text text-anchor="middle" x="636.93" y="-660.95" font-family="Times,serif" font-size="14.00">call TotalRecall_case_1p</text>
</g>
<!-- CALL_TotalRecall_case_1p&#45;&gt;CALL_cc_case -->
<g id="edge15" class="edge">
<title>CALL_TotalRecall_case_1p&#45;&gt;CALL_cc_case</title>
<path fill="none" stroke="black" d="M689.09,-650.07C709,-641.87 730.19,-629.68 743.93,-612 768.74,-580.06 762.93,-563.45 762.93,-523 762.93,-523 762.93,-523 762.93,-449 762.93,-408.55 770.39,-390.59 743.93,-360 731.72,-345.89 689.62,-331.25 654.24,-320.95"/>
<polygon fill="black" stroke="black" points="655.54,-317.68 644.97,-318.31 653.63,-324.41 655.54,-317.68"/>
</g>
<!-- CALL_TotalRecall_breakpoints_2p -->
<g id="node10" class="node">
<title>CALL_TotalRecall_breakpoints_2p</title>
<ellipse fill="none" stroke="black" cx="604.93" cy="-522" rx="130.17" ry="18"/>
<text text-anchor="middle" x="604.93" y="-516.95" font-family="Times,serif" font-size="14.00">call TotalRecall_breakpoints_2p</text>
</g>
<!-- CALL_TotalRecall_case_1p&#45;&gt;CALL_TotalRecall_breakpoints_2p -->
<g id="edge7" class="edge">
<title>CALL_TotalRecall_case_1p&#45;&gt;CALL_TotalRecall_breakpoints_2p</title>
<path fill="none" stroke="black" d="M580.58,-650.51C561.09,-642.5 541.29,-630.32 529.93,-612 521.49,-598.41 522.57,-590.21 529.93,-576 536.28,-563.72 546.94,-553.68 558.25,-545.77"/>
<polygon fill="black" stroke="black" points="560.03,-548.79 566.56,-540.44 556.25,-542.9 560.03,-548.79"/>
</g>
<!-- CALL_TotalRecall_case_1p&#45;&gt;CALL_cc_ctrl -->
<g id="edge30" class="edge">
<title>CALL_TotalRecall_case_1p&#45;&gt;CALL_cc_ctrl</title>
<path fill="none" stroke="black" d="M589.19,-649.65C566.68,-640.91 540.36,-628.4 519.93,-612 488.73,-586.96 480.82,-577.12 465.93,-540 438.06,-470.55 435.77,-380.83 436.7,-335.66"/>
<polygon fill="black" stroke="black" points="440.19,-336.02 436.97,-325.93 433.19,-335.82 440.19,-336.02"/>
</g>
<!-- CALL_TotalRecall_aln_1p -->
<g id="node19" class="node">
<title>CALL_TotalRecall_aln_1p</title>
<ellipse fill="none" stroke="black" cx="636.93" cy="-594" rx="98.44" ry="18"/>
<text text-anchor="middle" x="636.93" y="-588.95" font-family="Times,serif" font-size="14.00">call TotalRecall_aln_1p</text>
</g>
<!-- CALL_TotalRecall_case_1p&#45;&gt;CALL_TotalRecall_aln_1p -->
<g id="edge23" class="edge">
<title>CALL_TotalRecall_case_1p&#45;&gt;CALL_TotalRecall_aln_1p</title>
<path fill="none" stroke="black" d="M636.93,-647.7C636.93,-640.41 636.93,-631.73 636.93,-623.54"/>
<polygon fill="black" stroke="black" points="640.43,-623.62 636.93,-613.62 633.43,-623.62 640.43,-623.62"/>
</g>
<!-- CALL_TotalRecall_breakpoints_2p&#45;&gt;CALL_TotalRecall_integration_sites -->
<g id="edge38" class="edge">
<title>CALL_TotalRecall_breakpoints_2p&#45;&gt;CALL_TotalRecall_integration_sites</title>
<path fill="none" stroke="black" d="M650.58,-504.69C666.94,-496.37 683.63,-484.46 692.93,-468 700.8,-454.07 700.93,-445.85 692.93,-432 685.13,-418.52 672.46,-408.16 658.98,-400.33"/>
<polygon fill="black" stroke="black" points="660.89,-397.39 650.42,-395.79 657.61,-403.57 660.89,-397.39"/>
</g>
<!-- CALL_TotalRecall_aln_2p -->
<g id="node20" class="node">
<title>CALL_TotalRecall_aln_2p</title>
<ellipse fill="none" stroke="black" cx="585.93" cy="-450" rx="98.44" ry="18"/>
<text text-anchor="middle" x="585.93" y="-444.95" font-family="Times,serif" font-size="14.00">call TotalRecall_aln_2p</text>
</g>
<!-- CALL_TotalRecall_breakpoints_2p&#45;&gt;CALL_TotalRecall_aln_2p -->
<g id="edge34" class="edge">
<title>CALL_TotalRecall_breakpoints_2p&#45;&gt;CALL_TotalRecall_aln_2p</title>
<path fill="none" stroke="black" d="M600.23,-503.7C598.2,-496.24 595.78,-487.32 593.52,-478.97"/>
<polygon fill="black" stroke="black" points="596.96,-478.3 590.97,-469.57 590.21,-480.13 596.96,-478.3"/>
</g>
<!-- CALL_TotalRecall_drp_fq&#45;&gt;CALL_TotalRecall_drp_aln -->
<g id="edge8" class="edge">
<title>CALL_TotalRecall_drp_fq&#45;&gt;CALL_TotalRecall_drp_aln</title>
<path fill="none" stroke="black" d="M115.11,-216.05C123.75,-207.54 134.37,-197.07 143.89,-187.68"/>
<polygon fill="black" stroke="black" points="146.16,-190.36 150.82,-180.85 141.24,-185.38 146.16,-190.36"/>
</g>
<!-- CALL_TotalRecall_drp_fq&#45;&gt;CALL_TotalRecall_drp_case -->
<g id="edge21" class="edge">
<title>CALL_TotalRecall_drp_fq&#45;&gt;CALL_TotalRecall_drp_case</title>
<path fill="none" stroke="black" d="M80.43,-215.9C63.75,-197.45 43.19,-167.55 57.93,-144 67.45,-128.78 82.72,-117.82 98.86,-109.97"/>
<polygon fill="black" stroke="black" points="99.88,-113.35 107.6,-106.09 97.04,-106.95 99.88,-113.35"/>
</g>
<!-- CALL_control_clip -->
<g id="node15" class="node">
<title>CALL_control_clip</title>
<ellipse fill="none" stroke="black" cx="309.93" cy="-450" rx="71.31" ry="18"/>
<text text-anchor="middle" x="309.93" y="-444.95" font-family="Times,serif" font-size="14.00">call control_clip</text>
</g>
<!-- CALL_sort_bam_ctrl&#45;&gt;CALL_control_clip -->
<g id="edge14" class="edge">
<title>CALL_sort_bam_ctrl&#45;&gt;CALL_control_clip</title>
<path fill="none" stroke="black" d="M304.66,-503.7C305.39,-496.41 306.25,-487.73 307.07,-479.54"/>
<polygon fill="black" stroke="black" points="310.55,-479.91 308.06,-469.61 303.59,-479.21 310.55,-479.91"/>
</g>
<!-- CALL_case_clip -->
<g id="node13" class="node">
<title>CALL_case_clip</title>
<ellipse fill="none" stroke="black" cx="701.93" cy="-738" rx="61.08" ry="18"/>
<text text-anchor="middle" x="701.93" y="-732.95" font-family="Times,serif" font-size="14.00">call case_clip</text>
</g>
<!-- CALL_case_clip&#45;&gt;CALL_TotalRecall_integration_sites -->
<g id="edge19" class="edge">
<title>CALL_case_clip&#45;&gt;CALL_TotalRecall_integration_sites</title>
<path fill="none" stroke="black" d="M723.41,-720.79C752.52,-696.79 800.93,-648.79 800.93,-595 800.93,-595 800.93,-595 800.93,-521 800.93,-456.19 730.24,-418.25 672.91,-398.14"/>
<polygon fill="black" stroke="black" points="674.05,-394.83 663.45,-394.96 671.81,-401.46 674.05,-394.83"/>
</g>
<!-- CALL_case_clip&#45;&gt;CALL_cc_case -->
<g id="edge10" class="edge">
<title>CALL_case_clip&#45;&gt;CALL_cc_case</title>
<path fill="none" stroke="black" d="M733.01,-722.1C773.43,-700.3 838.93,-655.63 838.93,-595 838.93,-595 838.93,-595 838.93,-449 838.93,-398.12 808.92,-388.72 766.93,-360 757.15,-353.31 697.23,-334.98 652.16,-321.75"/>
<polygon fill="black" stroke="black" points="653.38,-318.46 642.8,-319.01 651.42,-325.18 653.38,-318.46"/>
</g>
<!-- CALL_case_clip&#45;&gt;CALL_TotalRecall_case_1p -->
<g id="edge13" class="edge">
<title>CALL_case_clip&#45;&gt;CALL_TotalRecall_case_1p</title>
<path fill="none" stroke="black" d="M686.52,-720.41C678.7,-711.99 669.04,-701.58 660.33,-692.2"/>
<polygon fill="black" stroke="black" points="663.07,-690.01 653.7,-685.07 657.94,-694.77 663.07,-690.01"/>
</g>
<!-- CALL_case_clip&#45;&gt;CALL_TotalRecall_breakpoints_2p -->
<g id="edge33" class="edge">
<title>CALL_case_clip&#45;&gt;CALL_TotalRecall_breakpoints_2p</title>
<path fill="none" stroke="black" d="M640.97,-735.59C601.49,-731.18 552.47,-718.45 524.93,-684 494.91,-646.47 496.61,-618.02 519.93,-576 527.12,-563.03 538.95,-552.83 551.53,-544.98"/>
<polygon fill="black" stroke="black" points="552.98,-548.18 559.92,-540.18 549.5,-542.11 552.98,-548.18"/>
</g>
<!-- CALL_TotalRecall_drp_names&#45;&gt;CALL_TotalRecall_drp_fq -->
<g id="edge27" class="edge">
<title>CALL_TotalRecall_drp_names&#45;&gt;CALL_TotalRecall_drp_fq</title>
<path fill="none" stroke="black" d="M143.85,-287.7C136.76,-279.56 128.15,-269.69 120.32,-260.7"/>
<polygon fill="black" stroke="black" points="123.03,-258.49 113.83,-253.25 117.76,-263.08 123.03,-258.49"/>
</g>
<!-- CALL_control_clip&#45;&gt;CALL_TotalRecall_integration_sites -->
<g id="edge32" class="edge">
<title>CALL_control_clip&#45;&gt;CALL_TotalRecall_integration_sites</title>
<path fill="none" stroke="black" d="M360.28,-436.89C406.05,-425.88 474.19,-409.49 526.28,-396.95"/>
<polygon fill="black" stroke="black" points="527.1,-400.36 536.01,-394.62 525.47,-393.55 527.1,-400.36"/>
</g>
<!-- CALL_control_clip&#45;&gt;CALL_cc_ctrl -->
<g id="edge29" class="edge">
<title>CALL_control_clip&#45;&gt;CALL_cc_ctrl</title>
<path fill="none" stroke="black" d="M325.11,-432.15C347.56,-407.25 389.72,-360.47 415.66,-331.7"/>
<polygon fill="black" stroke="black" points="418.05,-334.28 422.14,-324.51 412.85,-329.6 418.05,-334.28"/>
</g>
<!-- CALL_doc_case&#45;&gt;CALL_TotalRecall_final_step -->
<g id="edge17" class="edge">
<title>CALL_doc_case&#45;&gt;CALL_TotalRecall_final_step</title>
<path fill="none" stroke="black" d="M848.24,-288.8C793.15,-241.06 631.17,-100.68 565.29,-43.58"/>
<polygon fill="black" stroke="black" points="567.64,-40.99 557.79,-37.08 563.06,-46.28 567.64,-40.99"/>
</g>
<!-- CALL_cc_ctrl&#45;&gt;CALL_TotalRecall_final_step -->
<g id="edge18" class="edge">
<title>CALL_cc_ctrl&#45;&gt;CALL_TotalRecall_final_step</title>
<path fill="none" stroke="black" d="M441.08,-287.76C448.66,-248.35 469.83,-149.09 503.93,-72 507.92,-62.98 513.24,-53.67 518.44,-45.43"/>
<polygon fill="black" stroke="black" points="521.25,-47.53 523.81,-37.25 515.4,-43.69 521.25,-47.53"/>
</g>
<!-- CALL_sort_bam_case&#45;&gt;CALL_case_clip -->
<g id="edge20" class="edge">
<title>CALL_sort_bam_case&#45;&gt;CALL_case_clip</title>
<path fill="none" stroke="black" d="M701.93,-791.7C701.93,-784.41 701.93,-775.73 701.93,-767.54"/>
<polygon fill="black" stroke="black" points="705.43,-767.62 701.93,-757.62 698.43,-767.62 705.43,-767.62"/>
</g>
<!-- CALL_TotalRecall_aln_1p&#45;&gt;CALL_TotalRecall_breakpoints_2p -->
<g id="edge22" class="edge">
<title>CALL_TotalRecall_aln_1p&#45;&gt;CALL_TotalRecall_breakpoints_2p</title>
<path fill="none" stroke="black" d="M629.02,-575.7C625.53,-568.07 621.34,-558.92 617.45,-550.4"/>
<polygon fill="black" stroke="black" points="620.72,-549.12 613.37,-541.48 614.35,-552.03 620.72,-549.12"/>
</g>
<!-- CALL_TotalRecall_aln_2p&#45;&gt;CALL_TotalRecall_integration_sites -->
<g id="edge40" class="edge">
<title>CALL_TotalRecall_aln_2p&#45;&gt;CALL_TotalRecall_integration_sites</title>
<path fill="none" stroke="black" d="M589.63,-431.7C591.21,-424.32 593.1,-415.52 594.87,-407.25"/>
<polygon fill="black" stroke="black" points="598.27,-408.1 596.94,-397.58 591.43,-406.63 598.27,-408.1"/>
</g>
</g>
</svg>
